<svg width="20" height="20" viewBox="0 0 20 20" fill="none" xmlns="http://www.w3.org/2000/svg">
<path d="M17.1085 2.0014L14.3325 2.16481C14.1257 2.17752 13.9318 2.26409 13.7856 2.41024L11.9903 4.20561C11.7243 4.47158 11.6734 4.87158 11.8375 5.1889L10.3977 6.6291L9.69687 5.92828L9.90568 5.76715C10.3108 5.45496 10.3855 4.87258 10.072 4.4682L8.5622 2.51196C8.25011 2.10696 7.66844 2.03221 7.264 2.34571L6.55275 2.89394C5.39752 3.78516 4.0516 4.39511 2.62074 4.6758C2.57315 4.68498 2.57315 4.68498 2.56081 4.68752L2.09402 4.78299L2.03318 5.25552C1.73683 7.55729 3.46197 9.79275 5.76374 10.0899L6.23843 10.1512L6.44828 9.72097C6.45368 9.70987 6.45368 9.70987 6.46953 9.67687C6.61097 9.384 6.76756 9.10021 6.93697 8.82533L7.56904 9.4574L3.19515 13.8313C2.41412 14.6124 2.41412 15.8785 3.19515 16.6595C3.97616 17.4405 5.24295 17.4405 6.02399 16.6595L10.3973 12.2856L14.0403 15.9287C14.8214 16.7097 16.0881 16.7097 16.8692 15.9287C17.6502 15.1477 17.6502 13.8816 16.8692 13.1005L13.2259 9.45734L14.6391 8.0442C14.9695 8.33783 15.4753 8.32652 15.7929 8.01201L17.5898 6.21506C17.736 6.0689 17.8225 5.87496 17.8352 5.66993L17.9986 2.89278C18.0273 2.38868 17.6114 1.97274 17.1085 2.0014ZM5.48614 8.67055C4.2856 8.30345 3.38619 7.13782 3.33572 5.88356C4.80195 5.52818 6.17374 4.87036 7.367 3.94985L7.75616 3.64988L8.76802 4.96089L8.37923 5.26086C7.18488 6.18219 6.19962 7.3446 5.48614 8.67055ZM5.08114 15.7167C4.82086 15.977 4.39829 15.977 4.13798 15.7167C3.87766 15.4564 3.87766 15.0345 4.13798 14.7742L8.51189 10.4003L9.45446 11.3428L5.08114 15.7167ZM15.9263 14.9859C15.666 15.2462 15.2434 15.2462 14.9831 14.9859L10.8699 10.8727C10.8695 10.8723 10.8691 10.8718 10.8687 10.8713L8.98333 8.98596C8.98289 8.98552 8.98239 8.98515 8.98196 8.98471L7.73594 7.7387C8.0237 7.39132 8.33089 7.06901 8.65667 6.77369L15.9263 14.0434C16.1866 14.3037 16.1866 14.7256 15.9263 14.9859ZM12.7523 6.15975L13.6951 7.10254L12.2831 8.51449L11.3405 7.57189L12.7523 6.15975ZM16.5151 5.40412L15.1987 6.72053L14.7323 6.25409L13.2801 4.80142L14.5966 3.48491L16.6352 3.36491L16.5151 5.40412Z" fill="black"/>
</svg>
