<svg width="20" height="17" viewBox="0 0 20 17" fill="none" xmlns="http://www.w3.org/2000/svg">
<path d="M18.0179 1.59803C18.0179 1.21284 18.3306 0.9 18.716 0.9C19.1009 0.9 19.4141 1.21267 19.413 1.59844C19.413 1.59855 19.413 1.59866 19.413 1.59877M18.0179 1.59803L18.715 5.13354C19.0451 5.13354 19.313 4.86548 19.313 4.53551V1.59844L19.413 1.59877M18.0179 1.59803V3.83699H17.5494V3.40395C17.5494 2.02328 16.426 0.9 15.0457 0.9C14.3353 0.9 13.6955 1.19892 13.2398 1.67462C12.784 1.19892 12.1442 0.9 11.4342 0.9C10.7239 0.9 10.0837 1.19888 9.62821 1.67459C9.17247 1.1989 8.53246 0.9 7.82231 0.9C7.11233 0.9 6.47217 1.19889 6.01655 1.67459C5.56093 1.19889 4.92076 0.9 4.21063 0.9C2.83011 0.9 1.70684 2.02336 1.70684 3.40395V3.83699H0.598026C0.21285 3.83699 -0.1 4.14963 -0.1 4.53501C-0.1 4.92028 0.212823 5.23312 0.598026 5.23312H1.70592V14.0595C1.70592 15.4402 2.82928 16.5635 4.20971 16.5635C4.91983 16.5635 5.56 16.2648 6.01563 15.7891C6.47125 16.2648 7.11127 16.5635 7.82139 16.5635C8.53151 16.5635 9.17153 16.2648 9.62714 15.7891C10.0827 16.2648 10.723 16.5635 11.4329 16.5635C12.1428 16.5635 12.7833 16.2648 13.2388 15.7891C13.6943 16.2648 14.3348 16.5635 15.0448 16.5635C16.4254 16.5635 17.5487 15.4401 17.5487 14.0595V5.23354M18.0179 1.59803L17.5487 5.23354M19.413 1.59877L19.413 4.53551C19.413 4.92069 19.1004 5.23354 18.715 5.23354H17.5487M19.413 1.59877L17.5487 5.23354M16.1532 5.13354V14.06C16.1532 14.6709 15.6563 15.1679 15.0457 15.1679C14.435 15.1679 13.9379 14.671 13.9379 14.06V5.13354V3.9374V3.40437C13.9379 2.79358 14.435 2.29647 15.0457 2.29647C15.6563 2.29647 16.1532 2.79346 16.1532 3.40437V3.9374V5.13354ZM12.5413 14.0596C12.5413 14.6705 12.0441 15.1674 11.4335 15.1674C10.8228 15.1674 10.3256 14.6706 10.3256 14.0596V5.13354V3.9374V3.40437C10.3256 2.79358 10.8228 2.29647 11.4335 2.29647C12.044 2.29647 12.5413 2.7935 12.5413 3.40437V3.9374V5.13354V14.0596ZM8.92971 14.0596C8.92971 14.6705 8.43268 15.1674 7.82206 15.1674C7.21151 15.1674 6.71441 14.6706 6.71441 14.0596V5.13354V3.9374V3.40437C6.71441 2.79356 7.21153 2.29647 7.82206 2.29647C8.43267 2.29647 8.92971 2.79348 8.92971 3.40437V3.9374V5.13354V14.0596ZM5.31786 14.0596C5.31786 14.6705 4.8206 15.1674 4.21004 15.1674C3.59942 15.1674 3.10239 14.6706 3.10239 14.0596V5.13354V3.9374V3.40437C3.10239 2.79356 3.59943 2.29647 4.21004 2.29647C4.82059 2.29647 5.31786 2.7935 5.31786 3.40437V3.9374V5.13354V14.0596Z" fill="black" stroke="black" stroke-width="0.2"/>
</svg>
