<svg width="20" height="21" viewBox="0 0 20 21" fill="none" xmlns="http://www.w3.org/2000/svg">
<path d="M11.6667 17.0833V13.8333H14.1667C14.6087 13.8333 15.0326 13.6577 15.3452 13.3452C15.6577 13.0326 15.8333 12.6087 15.8333 12.1667V10.5H4.16666V12.1667C4.16666 13.0833 4.91666 13.8333 5.83332 13.8333H8.33332V17.0833C8.33332 17.5254 8.50892 17.9493 8.82148 18.2618C9.13404 18.5744 9.55796 18.75 9.99999 18.75C10.442 18.75 10.8659 18.5744 11.1785 18.2618C11.4911 17.9493 11.6667 17.5254 11.6667 17.0833Z" stroke="black" stroke-width="1.5" stroke-linecap="round" stroke-linejoin="round"/>
<path d="M5 10.5001V2.16675H15V10.5001" stroke="black" stroke-width="1.5" stroke-linecap="round" stroke-linejoin="round"/>
<path d="M11.6667 2.16675V5.50008" stroke="black" stroke-width="1.5" stroke-linecap="round" stroke-linejoin="round"/>
<path d="M8.33334 2.16675V3.83341" stroke="black" stroke-width="1.5" stroke-linecap="round" stroke-linejoin="round"/>
</svg>
