<svg width="20" height="21" viewBox="0 0 20 21" fill="none" xmlns="http://www.w3.org/2000/svg">
<g clip-path="url(#clip0_167_384)">
<path d="M18.0472 17.3455L18.0472 2.79652C18.0472 2.3698 17.7013 2.02386 17.2745 2.02386L2.72549 2.02386C2.29874 2.02386 1.95283 2.36977 1.95283 2.79652L1.95283 17.3455C1.9528 17.7723 2.29871 18.1182 2.72549 18.1182L17.2745 18.1182C17.7012 18.1182 18.0472 17.7723 18.0472 17.3455ZM16.5018 3.56917L16.5019 12.3644H13.8387L13.8387 3.56917L16.5018 3.56917ZM12.2934 7.77762L12.2934 12.3644H7.70658L7.70659 7.77762L12.2934 7.77762ZM3.49811 6.23234L3.49814 3.56923L12.2934 3.56917L12.2934 6.2323L3.49811 6.23234ZM3.49814 16.5728L3.49814 7.77768L6.16128 7.77768L6.16133 16.5729L3.49814 16.5728ZM7.70661 16.5729L7.70662 13.9097L16.5018 13.9097L16.5018 16.5729L7.70661 16.5729Z" fill="black" stroke="black" stroke-width="0.1"/>
</g>
<defs>
<clipPath id="clip0_167_384">
<rect width="20" height="20" fill="white" transform="translate(0 0.5)"/>
</clipPath>
</defs>
</svg>
