<svg width="20" height="20" viewBox="0 0 20 20" fill="none" xmlns="http://www.w3.org/2000/svg">
<g clip-path="url(#clip0_39_680)">
<path d="M3.21649 -0.05H3.16649V0V9.045V10.2332V12.0735V12.1235H3.21649H7.49064C7.73825 12.1235 7.96897 12.2215 8.14091 12.3997C8.31198 12.5769 8.40169 12.8095 8.39396 13.0555C8.39396 13.0557 8.39395 13.0558 8.39395 13.056L8.14383 18.1174L8.14381 18.1177L8.14346 18.126L8.14345 18.1263C8.12539 18.6346 8.31009 19.1164 8.6633 19.4823C9.01651 19.8483 9.49145 20.05 10.0001 20.05C10.5087 20.05 10.9836 19.8483 11.3368 19.4823C11.69 19.1164 11.8747 18.6346 11.8566 18.1263L11.8566 18.1256L11.6062 13.0558C11.6062 13.0556 11.6062 13.0555 11.6062 13.0553C11.5984 12.8093 11.6881 12.5769 11.8592 12.3996C12.0312 12.2214 12.2618 12.1235 12.5095 12.1235H16.7836H16.8336V12.0735V10.2331V9.04496V0V-0.05H16.7836H3.21649ZM12.5594 10.8354V10.8354H12.5094C11.9093 10.8354 11.3489 11.0733 10.9322 11.5051L10.9681 11.5399L10.9322 11.5051C10.5154 11.937 10.2975 12.5054 10.3189 13.1051L10.3189 13.1058L10.5693 18.1752C10.5693 18.1753 10.5693 18.1755 10.5694 18.1756C10.5739 18.3303 10.5174 18.4764 10.4098 18.5879C10.3014 18.7002 10.1561 18.7619 9.99998 18.7619C9.84387 18.7619 9.69853 18.7001 9.59009 18.5878C9.48256 18.4764 9.4261 18.3304 9.43061 18.1758C9.43061 18.1757 9.43062 18.1755 9.43062 18.1754L9.68074 13.1141L9.68076 13.1137L9.68111 13.1055L9.68112 13.1051C9.70238 12.5054 9.48452 11.937 9.06779 11.5051L9.03182 11.5399L9.06779 11.5051C8.65107 11.0733 8.09073 10.8354 7.4906 10.8354H4.45466V10.2832H15.5453V10.8354H12.5594ZM15.5453 8.995H4.4547V1.23817H15.5453V8.995Z" fill="black" stroke="black" stroke-width="0.1"/>
</g>
<defs>
<clipPath id="clip0_39_680">
<rect width="20" height="20" fill="white"/>
</clipPath>
</defs>
</svg>
