<svg width="20" height="20" viewBox="0 0 20 20" fill="none" xmlns="http://www.w3.org/2000/svg">
<g clip-path="url(#clip0_39_684)">
<path d="M12.6535 12.4551L12.6535 12.4552C12.6405 12.464 12.6266 12.4726 12.612 12.4809L10.6978 13.5931C10.6978 13.5931 10.6978 13.5931 10.6977 13.5931C10.6093 13.6446 10.5089 13.6716 10.4067 13.6716L6.17868 13.6717C6.15932 13.6717 6.14001 13.6708 6.12083 13.6689C5.93817 13.6869 5.74942 13.6179 5.62146 13.4667L3.37235 10.811C3.37235 10.8109 3.37234 10.8109 3.37234 10.8109C3.17684 10.5801 3.19187 10.2378 3.40665 10.025L3.40666 10.025L5.68984 7.763V6.85987C5.68984 6.5399 5.94919 6.28054 6.26917 6.28054C6.58915 6.28054 6.8485 6.5399 6.8485 6.85987V8.00376L6.84847 8.00898L6.84846 8.01135V8.01235V8.01505L6.84843 8.01505C6.84708 8.08997 6.83145 8.16163 6.80412 8.2273L6.8041 8.22737C6.77661 8.29333 6.7365 8.35521 6.68387 8.40914L6.6809 8.41231L6.68086 8.41227L6.67922 8.41401L6.67918 8.41397L6.67882 8.41433L6.67649 8.41675L6.67647 8.41672L4.60279 10.4711L6.33216 12.513L10.2506 12.5128L11.4588 11.8108L8.45066 8.01184H7.58617C7.26619 8.01184 7.00684 7.75249 7.00684 7.43251C7.00684 7.11253 7.2662 6.85318 7.58617 6.85318H8.72634H8.72677L12.6535 12.4551ZM12.6535 12.4551C12.7099 12.4169 12.7578 12.3701 12.7962 12.3174L12.6535 12.4551ZM12.8886 11.8281L12.8886 11.8281C12.9109 11.9128 12.9133 12.0001 12.8975 12.0836C12.8975 12.0836 12.8975 12.0836 12.8975 12.0837L12.7501 12.0557L12.8886 11.8281ZM12.8886 11.8281C12.8722 11.7657 12.845 11.7048 12.8068 11.649M12.8886 11.8281L12.8068 11.649M12.8068 11.649L12.683 11.7337L12.8068 11.649ZM9.05549 7.15154L9.16879 7.05323C9.16886 7.0533 9.16892 7.05338 9.16899 7.05346C9.17576 7.06127 9.18211 7.06906 9.18802 7.07663C9.18814 7.07679 9.18827 7.07695 9.18839 7.07711L12.7772 11.6094L8.75632 6.85375L8.74981 7.00361M9.05549 7.15154C9.01576 7.10555 8.96815 7.06996 8.91634 7.0452M9.05549 7.15154C9.0605 7.15731 9.06537 7.16327 9.07009 7.16933L9.05549 7.15154ZM8.91634 7.0452L8.98123 6.90997C8.9812 6.90995 8.98116 6.90993 8.98113 6.90991C8.98109 6.9099 8.98106 6.90988 8.98102 6.90986L8.91634 7.0452ZM8.91634 7.0452C8.86554 7.02083 8.80925 7.00618 8.74981 7.00361M8.74981 7.00361L8.7563 6.85375L8.74981 7.00361ZM19.5707 16.7193C19.8906 16.7193 20.15 16.46 20.15 16.14C20.15 15.82 19.8907 15.5607 19.5707 15.5607H0.429333C0.109355 15.5607 -0.15 15.82 -0.15 16.14C-0.15 16.46 0.109356 16.7193 0.429333 16.7193H19.5707ZM14.6496 7.42553C13.483 7.42553 12.5343 8.37429 12.5343 9.54082C12.5343 10.7073 13.4831 11.6561 14.6496 11.6561C15.8161 11.6561 16.7649 10.7073 16.7649 9.54082C16.7649 8.3743 15.8161 7.42553 14.6496 7.42553ZM14.6496 10.4974C14.1222 10.4974 13.6929 10.0681 13.6929 9.54082C13.6929 9.01344 14.1222 8.58415 14.6496 8.58419C15.1769 8.58419 15.6062 9.01343 15.6062 9.54082C15.6062 10.0682 15.1769 10.4974 14.6496 10.4974Z" fill="black" stroke="black" stroke-width="0.3"/>
</g>
<defs>
<clipPath id="clip0_39_684">
<rect width="20" height="20" fill="white"/>
</clipPath>
</defs>
</svg>
