<svg width="19" height="18" viewBox="0 0 19 18" fill="none" xmlns="http://www.w3.org/2000/svg">
<path d="M17.2411 0.499119C17.0024 0.510221 16.7775 0.57961 16.5777 0.657326H16.5749C16.3723 0.737816 15.4092 1.14305 13.9465 1.75644C12.4838 2.37262 10.5853 3.17198 8.70071 3.96578C4.93707 5.55063 1.23726 7.11049 1.23726 7.11049L1.28167 7.09383C1.28167 7.09383 1.02632 7.1771 0.759866 7.36029C0.623865 7.4491 0.473985 7.57123 0.343535 7.76274C0.213084 7.95425 0.107613 8.24846 0.146471 8.551C0.210308 9.06448 0.543374 9.37256 0.782071 9.54187C1.02354 9.71395 1.25391 9.79445 1.25391 9.79445H1.25946L4.7289 10.963C4.88433 11.4626 5.78638 14.4268 6.00288 15.1096C6.13055 15.5176 6.25545 15.773 6.41088 15.9673C6.48582 16.0672 6.57464 16.1505 6.68011 16.2171C6.72174 16.2421 6.76615 16.2615 6.81056 16.2781C6.82444 16.2865 6.83832 16.2892 6.85497 16.292L6.81889 16.2837C6.82999 16.2865 6.83832 16.2948 6.84664 16.2976C6.8744 16.3059 6.89383 16.3087 6.92991 16.3142C7.47947 16.4808 7.92078 16.1394 7.92078 16.1394L7.94576 16.1199L9.99411 14.2548L13.4275 16.8888L13.5052 16.9221C14.2213 17.2357 14.9457 17.0608 15.3287 16.7528C15.7145 16.4419 15.8644 16.045 15.8644 16.045L15.8894 15.9812L18.5428 2.38927C18.6177 2.05343 18.6372 1.73979 18.5539 1.43448C18.4706 1.12917 18.2569 0.843288 17.9988 0.690632C17.7379 0.535201 17.4798 0.488017 17.2411 0.499119ZM17.1689 1.95628C17.1661 2.00069 17.1745 1.99514 17.155 2.08118V2.08951L14.5266 15.5398C14.5155 15.5593 14.496 15.6009 14.4433 15.6425C14.3878 15.6869 14.3434 15.7147 14.113 15.6231L9.91362 12.4035L7.37677 14.7155L7.90968 11.3127C7.90968 11.3127 14.4877 5.18148 14.7708 4.9178C15.0539 4.65412 14.9596 4.59861 14.9596 4.59861C14.979 4.27665 14.5321 4.50424 14.5321 4.50424L5.88075 9.86383L5.87798 9.84996L1.73131 8.45385V8.45108C1.72853 8.45108 1.72298 8.4483 1.72021 8.4483C1.72298 8.4483 1.74241 8.43998 1.74241 8.43998L1.76461 8.42887L1.78682 8.42055C1.78682 8.42055 5.4894 6.86069 9.25304 5.27585C11.1376 4.48204 13.0361 3.68268 14.4961 3.06651C15.956 2.45311 17.0357 2.00347 17.0967 1.97849C17.155 1.95628 17.1273 1.95628 17.1689 1.95628Z" fill="black"/>
</svg>
