<svg width="18" height="18" viewBox="0 0 18 18" fill="none" xmlns="http://www.w3.org/2000/svg">
<path d="M5.04414 14.4117L5.64747 14.7642C6.66492 15.3576 7.82213 15.6691 8.99997 15.6667C10.3185 15.6667 11.6074 15.2757 12.7038 14.5431C13.8001 13.8106 14.6546 12.7694 15.1592 11.5512C15.6638 10.333 15.7958 8.99261 15.5385 7.6994C15.2813 6.40619 14.6464 5.21831 13.714 4.28596C12.7817 3.35361 11.5938 2.71867 10.3006 2.46143C9.00737 2.2042 7.66692 2.33622 6.44875 2.8408C5.23057 3.34539 4.18938 4.19987 3.45684 5.2962C2.7243 6.39253 2.3333 7.68146 2.3333 9C2.3333 10.1967 2.64747 11.3442 3.23664 12.3533L3.5883 12.9567L3.04414 14.9575L5.04414 14.4117ZM0.66997 17.3333L1.79664 13.1933C1.05425 11.9207 0.664217 10.4733 0.666637 9C0.666637 4.3975 4.39747 0.666668 8.99997 0.666668C13.6025 0.666668 17.3333 4.3975 17.3333 9C17.3333 13.6025 13.6025 17.3333 8.99997 17.3333C7.52729 17.3357 6.08052 16.946 4.8083 16.2042L0.66997 17.3333ZM5.99247 5.09C6.10414 5.08167 6.21664 5.08167 6.3283 5.08667C6.3733 5.09 6.4183 5.095 6.4633 5.1C6.5958 5.115 6.74164 5.19583 6.7908 5.3075C7.03914 5.87083 7.2808 6.43833 7.51414 7.0075C7.5658 7.13417 7.53497 7.29667 7.43664 7.455C7.36901 7.56207 7.29585 7.66554 7.21747 7.765C7.1233 7.88583 6.9208 8.1075 6.9208 8.1075C6.9208 8.1075 6.8383 8.20583 6.86997 8.32833C6.88164 8.375 6.91997 8.4425 6.95497 8.49917L7.00414 8.57833C7.21747 8.93417 7.50414 9.295 7.85414 9.635C7.95414 9.73167 8.05164 9.83083 8.15664 9.92333C8.54664 10.2675 8.9883 10.5483 9.46497 10.7567L9.46914 10.7583C9.53997 10.7892 9.5758 10.8058 9.67914 10.85C9.7308 10.8717 9.78414 10.8908 9.8383 10.905C9.89428 10.9193 9.95323 10.9166 10.0077 10.8973C10.0621 10.878 10.1096 10.843 10.1441 10.7967C10.7475 10.0658 10.8025 10.0183 10.8075 10.0183V10.02C10.8494 9.98091 10.8992 9.95124 10.9535 9.93298C11.0078 9.91473 11.0655 9.90831 11.1225 9.91417C11.1725 9.9175 11.2233 9.92667 11.27 9.9475C11.7125 10.15 12.4366 10.4658 12.4366 10.4658L12.9216 10.6833C13.0033 10.7225 13.0775 10.815 13.08 10.9042C13.0833 10.96 13.0883 11.05 13.0691 11.215C13.0425 11.4308 12.9775 11.69 12.9125 11.8258C12.868 11.9185 12.8089 12.0035 12.7375 12.0775C12.6534 12.1658 12.5613 12.2461 12.4625 12.3175C12.4283 12.3432 12.3935 12.3682 12.3583 12.3925C12.2547 12.4583 12.1482 12.5194 12.0391 12.5758C11.8246 12.6898 11.5876 12.7552 11.345 12.7675C11.1908 12.7758 11.0366 12.7875 10.8816 12.7792C10.875 12.7792 10.4083 12.7067 10.4083 12.7067C9.22351 12.395 8.1278 11.8112 7.2083 11.0017C7.01997 10.8358 6.8458 10.6575 6.66747 10.48C5.9258 9.7425 5.3658 8.94667 5.0258 8.195C4.85178 7.82608 4.75778 7.4245 4.74997 7.01667C4.74654 6.51071 4.91193 6.01806 5.21997 5.61667C5.2808 5.53833 5.3383 5.45667 5.43747 5.3625C5.5433 5.2625 5.60997 5.20917 5.68247 5.1725C5.77887 5.12419 5.88402 5.09585 5.99164 5.08917L5.99247 5.09Z" fill="black"/>
</svg>
