<svg width="20" height="21" viewBox="0 0 20 21" fill="none" xmlns="http://www.w3.org/2000/svg">
<path d="M16.6666 8.83366C16.6666 13.8337 9.99995 18.8337 9.99995 18.8337C9.99995 18.8337 3.33328 13.8337 3.33328 8.83366C3.33328 7.06555 4.03566 5.36986 5.2859 4.11961C6.53615 2.86937 8.23184 2.16699 9.99995 2.16699C11.7681 2.16699 13.4638 2.86937 14.714 4.11961C15.9642 5.36986 16.6666 7.06555 16.6666 8.83366V8.83366Z" stroke="black" stroke-width="1.66667" stroke-linecap="round" stroke-linejoin="round"/>
<path d="M10 11.3335C11.3807 11.3335 12.5 10.2142 12.5 8.8335C12.5 7.45278 11.3807 6.3335 10 6.3335C8.61929 6.3335 7.5 7.45278 7.5 8.8335C7.5 10.2142 8.61929 11.3335 10 11.3335Z" stroke="black" stroke-width="1.66667" stroke-linecap="round" stroke-linejoin="round"/>
</svg>
