<svg width="40" height="49" viewBox="0 0 40 49" fill="none" xmlns="http://www.w3.org/2000/svg">
<ellipse opacity="0.5" cx="20" cy="43" rx="12" ry="6" fill="#150000"/>
<path d="M19.8577 40C3.09219 27.4519 4.76149 13.4289 4.76149 13.4289H15.1623C15.0781 13.7634 15.0337 14.1068 15.0302 14.4518C15.0417 15.1253 15.1891 15.7896 15.4636 16.4048C16.0556 17.4101 16.8951 18.2473 17.902 18.8366C18.5164 19.1224 19.1858 19.2705 19.8633 19.2705C20.5409 19.2705 21.2103 19.1224 21.8246 18.8366C22.8315 18.2482 23.6702 17.4107 24.2602 16.4048C24.5345 15.7879 24.6816 15.1221 24.6927 14.4472C24.6892 14.1022 24.6452 13.7589 24.5616 13.4242H35.2563C35.2563 13.4242 36.627 27.2269 19.8577 40ZM24.2574 12.4952C23.6666 11.4891 22.8281 10.651 21.8218 10.0605C21.2088 9.77425 20.5404 9.62592 19.8638 9.62592C19.1872 9.62592 18.5188 9.77425 17.9057 10.0605C16.8993 10.6518 16.0602 11.4897 15.4673 12.4952C15.3412 12.7964 15.2398 13.1074 15.1642 13.4251H4.77452C4.77452 6.01139 11.5959 0.000976562 20.0103 0.000976562C28.4247 0.000976562 35.246 6.01139 35.246 13.4251H24.5606C24.4845 13.1075 24.3828 12.7965 24.2565 12.4952H24.2574Z" fill="#478ECC"/>
</svg>
