<svg width="20" height="20" viewBox="0 0 20 20" fill="none" xmlns="http://www.w3.org/2000/svg">
<path d="M17.2411 1.4991C17.0024 1.51021 16.7776 1.57959 16.5777 1.65731H16.575C16.3724 1.7378 15.4092 2.14303 13.9465 2.75643C12.4838 3.3726 10.5853 4.17196 8.70074 4.96577C4.9371 6.55061 1.23729 8.11047 1.23729 8.11047L1.2817 8.09382C1.2817 8.09382 1.02635 8.17708 0.759897 8.36027C0.623895 8.44909 0.474015 8.57121 0.343565 8.76273C0.213114 8.95424 0.107643 9.24845 0.146501 9.55098C0.210339 10.0645 0.543405 10.3725 0.782101 10.5419C1.02357 10.7139 1.25394 10.7944 1.25394 10.7944H1.2595L4.72893 11.9629C4.88436 12.4625 5.78641 15.4268 6.00291 16.1096C6.13058 16.5176 6.25548 16.773 6.41091 16.9673C6.48585 17.0672 6.57467 17.1504 6.68014 17.2171C6.72177 17.242 6.76618 17.2615 6.81059 17.2781C6.82447 17.2864 6.83835 17.2892 6.855 17.292L6.81892 17.2837C6.83002 17.2864 6.83835 17.2948 6.84667 17.2976C6.87443 17.3059 6.89386 17.3087 6.92994 17.3142C7.4795 17.4807 7.92081 17.1393 7.92081 17.1393L7.94579 17.1199L9.99414 15.2547L13.4275 17.8887L13.5052 17.9221C14.2213 18.2357 14.9457 18.0608 15.3287 17.7527C15.7145 17.4419 15.8644 17.045 15.8644 17.045L15.8894 16.9811L18.5428 3.38926C18.6178 3.05341 18.6372 2.73978 18.5539 2.43447C18.4707 2.12915 18.2569 1.84327 17.9988 1.69062C17.7379 1.53519 17.4798 1.488 17.2411 1.4991ZM17.1689 2.95627C17.1662 3.00068 17.1745 2.99513 17.1551 3.08117V3.0895L14.5266 16.5398C14.5155 16.5593 14.4961 16.6009 14.4433 16.6425C14.3878 16.6869 14.3434 16.7147 14.1131 16.6231L9.91365 13.4035L7.3768 15.7155L7.90971 12.3127C7.90971 12.3127 14.4878 6.18146 14.7709 5.91778C15.054 5.65411 14.9596 5.5986 14.9596 5.5986C14.979 5.27663 14.5322 5.50423 14.5322 5.50423L5.88078 10.8638L5.87801 10.8499L1.73134 9.45384V9.45106C1.72856 9.45106 1.72301 9.44829 1.72024 9.44829C1.72301 9.44829 1.74244 9.43996 1.74244 9.43996L1.76465 9.42886L1.78685 9.42053C1.78685 9.42053 5.48943 7.86067 9.25307 6.27583C11.1377 5.48202 13.0361 4.68266 14.4961 4.06649C15.956 3.45309 17.0357 3.00345 17.0968 2.97847C17.1551 2.95627 17.1273 2.95627 17.1689 2.95627Z" fill="black"/>
</svg>
