<svg width="20" height="20" viewBox="0 0 20 20" fill="none" xmlns="http://www.w3.org/2000/svg">
<g clip-path="url(#clip0_54_333)">
<path d="M6.04417 15.4115L6.6475 15.764C7.66495 16.3574 8.82216 16.6689 10 16.6665C11.3185 16.6665 12.6075 16.2755 13.7038 15.543C14.8001 14.8104 15.6546 13.7692 16.1592 12.5511C16.6638 11.3329 16.7958 9.99244 16.5386 8.69923C16.2813 7.40603 15.6464 6.21814 14.714 5.28579C13.7817 4.35344 12.5938 3.7185 11.3006 3.46127C10.0074 3.20403 8.66695 3.33606 7.44878 3.84064C6.2306 4.34522 5.18941 5.19971 4.45687 6.29604C3.72433 7.39236 3.33333 8.68129 3.33333 9.99984C3.33333 11.1965 3.6475 12.344 4.23667 13.3532L4.58833 13.9565L4.04417 15.9573L6.04417 15.4115ZM1.67 18.3332L2.79667 14.1932C2.05428 12.9205 1.66425 11.4732 1.66667 9.99984C1.66667 5.39734 5.3975 1.6665 10 1.6665C14.6025 1.6665 18.3333 5.39734 18.3333 9.99984C18.3333 14.6023 14.6025 18.3332 10 18.3332C8.52732 18.3355 7.08055 17.9458 5.80833 17.204L1.67 18.3332ZM6.9925 6.08984C7.10417 6.0815 7.21667 6.0815 7.32833 6.0865C7.37333 6.08984 7.41833 6.09484 7.46333 6.09984C7.59583 6.11484 7.74167 6.19567 7.79083 6.30734C8.03917 6.87067 8.28083 7.43817 8.51417 8.00734C8.56583 8.134 8.535 8.2965 8.43667 8.45484C8.36904 8.5619 8.29588 8.66538 8.2175 8.76484C8.12333 8.88567 7.92083 9.10734 7.92083 9.10734C7.92083 9.10734 7.83833 9.20567 7.87 9.32817C7.88167 9.37484 7.92 9.44234 7.955 9.499L8.00417 9.57817C8.2175 9.934 8.50417 10.2948 8.85417 10.6348C8.95417 10.7315 9.05167 10.8307 9.15667 10.9232C9.54667 11.2673 9.98833 11.5482 10.465 11.7565L10.4692 11.7582C10.54 11.789 10.5758 11.8057 10.6792 11.8498C10.7308 11.8715 10.7842 11.8907 10.8383 11.9048C10.8943 11.9191 10.9533 11.9164 11.0077 11.8971C11.0622 11.8778 11.1096 11.8428 11.1442 11.7965C11.7475 11.0657 11.8025 11.0182 11.8075 11.0182V11.0198C11.8494 10.9807 11.8992 10.9511 11.9535 10.9328C12.0079 10.9146 12.0655 10.9081 12.1225 10.914C12.1725 10.9173 12.2233 10.9265 12.27 10.9473C12.7125 11.1498 13.4367 11.4657 13.4367 11.4657L13.9217 11.6832C14.0033 11.7223 14.0775 11.8148 14.08 11.904C14.0833 11.9598 14.0883 12.0498 14.0692 12.2148C14.0425 12.4307 13.9775 12.6898 13.9125 12.8257C13.868 12.9184 13.8089 13.0033 13.7375 13.0773C13.6534 13.1656 13.5614 13.246 13.4625 13.3173C13.4283 13.3431 13.3936 13.3681 13.3583 13.3923C13.2547 13.4581 13.1482 13.5193 13.0392 13.5757C12.8246 13.6896 12.5876 13.7551 12.345 13.7673C12.1908 13.7757 12.0367 13.7873 11.8817 13.779C11.875 13.779 11.4083 13.7065 11.4083 13.7065C10.2235 13.3949 9.12783 12.8111 8.20833 12.0015C8.02 11.8357 7.84583 11.6573 7.6675 11.4798C6.92583 10.7423 6.36583 9.9465 6.02583 9.19484C5.85181 8.82591 5.75781 8.42434 5.75 8.0165C5.74657 7.51055 5.91196 7.01789 6.22 6.6165C6.28083 6.53817 6.33833 6.4565 6.4375 6.36234C6.54333 6.26234 6.61 6.209 6.6825 6.17234C6.7789 6.12403 6.88405 6.09569 6.99167 6.089L6.9925 6.08984Z" fill="black"/>
</g>
<defs>
<clipPath id="clip0_54_333">
<rect width="20" height="20" fill="white"/>
</clipPath>
</defs>
</svg>
