<svg width="80" height="80" viewBox="0 0 80 80" fill="none" xmlns="http://www.w3.org/2000/svg">
<path d="M61.5669 1.33325H9.7352C7.52693 1.33325 5.73532 3.12486 5.73532 5.33313V63.3313L21.0682 78.6642H61.5669C63.7752 78.6642 65.5668 76.8726 65.5668 74.6643V5.33313C65.5668 3.12486 63.7752 1.33325 61.5669 1.33325Z" fill="#E8F3FF"/>
<path d="M65.5668 25.7529V74.6643C65.5668 76.8734 63.776 78.6642 61.5669 78.6642H21.0682L5.73532 63.3314V47.0474C5.73532 46.1991 6.5158 45.5666 7.34544 45.7436C30.0067 50.5798 50.6709 41.8722 63.1584 24.9647C63.924 23.9279 65.5668 24.4641 65.5668 25.7529Z" fill="#D1E7FF"/>
<path d="M21.0682 66.5595V78.6642L5.73532 63.3313H17.8399C19.6232 63.3313 21.0682 64.7763 21.0682 66.5595Z" fill="#B9DCFF"/>
<path d="M53.5672 11.9996V18.666C53.5672 20.1393 52.3739 21.3326 50.9006 21.3326H19.9015C18.4283 21.3326 17.235 20.1393 17.235 18.666V11.9996C17.235 10.5263 18.4283 9.33301 19.9015 9.33301H50.9006C52.3739 9.33301 53.5672 10.5263 53.5672 11.9996Z" fill="#F5E6A4"/>
<path d="M74.2682 61.0348C74.2682 68.4262 69.8571 75.0622 63.1568 77.7476C61.9007 78.2511 62.0417 78.2009 61.9869 78.2009C60.4453 78.8192 58.727 78.8192 57.1837 78.2009L56.0521 77.7476C49.3523 75.061 44.9424 68.4262 44.9424 61.0348V50.7068C44.9424 49.3735 46.0357 48.3202 47.3323 48.3969C50.9911 48.6114 54.7163 47.931 58.1853 46.3103C59.0736 45.8953 60.0969 45.8953 60.9852 46.3103C64.4226 47.9144 68.1394 48.6137 71.8382 48.3969C73.1349 48.3202 74.2282 49.3735 74.2282 50.7068C74.2282 61.8151 74.2062 61.0348 74.2682 61.0348Z" fill="#B9DCFF"/>
<path d="M71.9961 51.4881C70.8538 51.306 69.8336 51.0548 68.9383 50.7801C66.0593 49.8972 62.9837 49.954 60.1001 50.822C58.0728 51.4321 55.4404 51.9139 52.3322 51.7301C51.0356 51.6534 49.9423 52.7067 49.9423 54.04C49.9423 54.04 49.9424 64.4699 49.9429 64.5209C49.9656 67.2823 45.9944 67.7669 45.3892 65.0724C45.0961 63.7667 44.9424 62.4139 44.9424 61.0348V50.7068C44.9424 49.3735 46.0357 48.3207 47.3323 48.3969C51.0027 48.6125 54.7399 47.9271 58.2198 46.2941C59.0963 45.883 60.1079 45.901 60.9854 46.3103C64.422 47.9136 68.1404 48.6155 71.8384 48.3969C74.7443 48.2251 74.1367 51.8294 71.9961 51.4881Z" fill="#D1E7FF"/>
<path d="M75.5621 60.7128V50.7072C75.5621 48.6413 73.8555 46.9424 71.7601 47.0655C71.0249 47.1085 70.464 47.7393 70.5068 48.4743C70.5499 49.2093 71.1824 49.7713 71.9156 49.7276C72.4416 49.6974 72.8954 50.1334 72.8954 50.7072C72.8954 61.8894 72.8789 61.1234 72.9319 61.3461C72.8125 68.1144 68.8085 74.0459 62.6617 76.5099C61.3202 77.0478 61.6762 76.8893 61.4911 76.9633C60.2623 77.4556 58.9086 77.4556 57.6799 76.9633L56.5489 76.5103C50.3079 74.0069 46.2752 67.9324 46.2752 61.0351V50.7072C46.2752 50.1566 46.7085 49.6963 47.2548 49.7276C51.1432 49.9564 55.0928 49.2273 58.75 47.5177C59.281 47.2697 59.8898 47.2695 60.4209 47.5178C62.3255 48.4077 64.491 49.0501 65.3446 49.1936C65.9648 49.3001 66.5502 48.9573 66.7867 48.4173C66.9567 48.032 66.9002 50.8891 66.9002 5.33317C66.9002 2.39243 64.5078 0 61.5671 0H9.73535C6.79461 0 4.40218 2.39243 4.40218 5.33317C4.40218 65.9163 4.37802 63.4487 4.45951 63.718C4.50851 63.8792 4.58934 64.0362 4.70334 64.1753C4.75851 64.2428 20.1254 79.6232 20.2772 79.7353C20.5012 79.9007 20.7702 79.992 21.0477 79.9963C21.117 79.998 19.588 79.9973 47.2718 79.9973C48.0082 79.9973 48.6051 79.4004 48.6051 78.664C48.6051 77.9277 48.0082 77.3307 47.2718 77.3307H22.4015V66.5591C22.4015 64.044 20.3554 61.9979 17.8403 61.9979H14.3155C13.5792 61.9979 12.9822 62.5949 12.9822 63.3312C12.9822 64.0675 13.5792 64.6645 14.3155 64.6645H17.8401C18.8849 64.6645 19.7347 65.5145 19.7347 66.5591V75.4451L7.06843 62.7787V5.33317C7.06843 3.86288 8.26473 2.66658 9.73502 2.66658H61.5667C63.037 2.66658 64.2333 3.86288 64.2333 5.33317V46.1421C63.3183 45.8566 62.4205 45.5089 61.5497 45.1021C60.3013 44.5184 58.869 44.5184 57.6205 45.1021C54.4903 46.5649 50.9994 47.276 47.4103 47.0655C45.3104 46.9427 43.6083 48.6445 43.6083 50.7072V61.0351C43.6083 68.806 48.2008 76.0371 55.5562 78.9855C56.9024 79.525 57.9012 80 59.585 80C61.2142 79.9997 62.2714 79.5393 63.6535 78.9852C70.9959 76.042 75.601 68.8213 75.601 61.0351C75.6013 60.9239 75.5876 60.8159 75.5621 60.7128Z" fill="#478ECC"/>
<path d="M63.9573 58.3887L58.8307 63.5155L56.2681 61.3191C55.7091 60.8399 54.8673 60.9049 54.3881 61.4637C53.909 62.0227 53.9738 62.8644 54.5328 63.3437L58.0327 66.3436C58.5627 66.7979 59.3516 66.7656 59.8431 66.2741L65.8429 60.2743C66.3636 59.7534 66.3636 58.9095 65.8429 58.3887C65.3221 57.8682 64.4781 57.8682 63.9573 58.3887Z" fill="#478ECC"/>
<path d="M59.2336 29.3324C59.2336 28.5961 58.6366 27.9991 57.9003 27.9991H12.9017C12.1654 27.9991 11.5685 28.5961 11.5685 29.3324C11.5685 30.0687 12.1654 30.6657 12.9017 30.6657H57.9003C58.6366 30.6657 59.2336 30.0687 59.2336 29.3324Z" fill="#478ECC"/>
<path d="M53.5672 16.6662C54.3035 16.6662 54.9005 16.0692 54.9005 15.3329V11.9996C54.9005 9.7942 53.106 7.99976 50.9006 7.99976H19.9015C17.6961 7.99976 15.9017 9.7942 15.9017 11.9996V18.6661C15.9017 20.8715 17.6961 22.666 19.9015 22.666H49.6695C50.4058 22.666 51.0027 22.069 51.0027 21.3327C51.0027 20.5964 50.4058 19.9994 49.6695 19.9994H19.9015C19.1664 19.9994 18.5683 19.4012 18.5683 18.6661V11.9996C18.5683 11.2645 19.1664 10.6663 19.9015 10.6663H50.9006C51.6357 10.6663 52.2339 11.2645 52.2339 11.9996V15.3329C52.2339 16.0692 52.8309 16.6662 53.5672 16.6662Z" fill="#FFD84F"/>
<path d="M21.9015 37.9988H17.9016C17.1653 37.9988 16.5683 38.5958 16.5683 39.3321C16.5683 40.0684 17.1653 40.6654 17.9016 40.6654H21.9015C22.6378 40.6654 23.2348 40.0684 23.2348 39.3321C23.2348 38.5958 22.6378 37.9988 21.9015 37.9988Z" fill="#478ECC"/>
<path d="M21.9015 50.665H17.9016C17.1653 50.665 16.5683 51.262 16.5683 51.9983C16.5683 52.7346 17.1653 53.3316 17.9016 53.3316H21.9015C22.6378 53.3316 23.2348 52.7346 23.2348 51.9983C23.2348 51.262 22.6378 50.665 21.9015 50.665Z" fill="#478ECC"/>
<path d="M54.9005 39.3321C54.9005 38.5958 54.3035 37.9988 53.5672 37.9988H29.5679C28.8316 37.9988 28.2346 38.5958 28.2346 39.3321C28.2346 40.0684 28.8316 40.6654 29.5679 40.6654H53.5672C54.3035 40.6654 54.9005 40.0684 54.9005 39.3321Z" fill="#478ECC"/>
<path d="M40.2342 50.665H29.5679C28.8316 50.665 28.2346 51.262 28.2346 51.9983C28.2346 52.7346 28.8316 53.3316 29.5679 53.3316H40.2342C40.9706 53.3316 41.5675 52.7346 41.5675 51.9983C41.5675 51.262 40.9706 50.665 40.2342 50.665Z" fill="#478ECC"/>
<path d="M40.2342 63.3313H29.5679C28.8316 63.3313 28.2346 63.9283 28.2346 64.6646C28.2346 65.4009 28.8316 65.9979 29.5679 65.9979H40.2342C40.9706 65.9979 41.5675 65.4009 41.5675 64.6646C41.5675 63.9283 40.9706 63.3313 40.2342 63.3313Z" fill="#478ECC"/>
</svg>
