<svg width="80" height="80" viewBox="0 0 80 80" fill="none" xmlns="http://www.w3.org/2000/svg">
<g clip-path="url(#clip0_167_738)">
<path d="M40.0038 1.33899C18.6521 1.33899 1.34314 18.648 1.34314 39.9997C1.34314 53.106 7.86547 64.6892 17.8406 71.6798V71.6815C31.1199 80.9869 48.8731 80.997 62.1671 71.6815V71.6798C72.1422 64.6892 78.6646 53.106 78.6646 39.9997C78.6646 18.648 61.3554 1.33899 40.0038 1.33899Z" fill="#D1E7FF"/>
<path d="M41.9679 10.2708C24.961 14.1417 11.8342 30.0781 11.1846 47.5172C10.986 52.8482 3.39698 53.5546 2.24866 48.3449C-3.15484 23.8272 15.997 0.65878 41.0945 1.35401C46.3642 1.49998 47.1079 9.10081 41.9679 10.2708Z" fill="#E8F3FF"/>
<path d="M56.8612 62.5062C50.1933 60.2133 50.2996 60.2796 49.6307 59.9366C46.9174 58.5562 45.3163 55.7308 45.3163 53.0677C50.6922 50.9814 54.5016 45.7588 54.5016 39.6464V39.1915C56.6543 39.1915 58.1677 37.5209 58.1677 35.6271C58.1677 35.2938 58.1677 28.3615 58.1677 28.3615C58.1577 4.29189 21.84 4.29189 21.84 28.3715V35.6271C21.84 37.5181 23.3497 39.1915 25.5061 39.1915V39.6464C25.5061 45.7488 29.3021 50.963 34.663 53.056C34.663 56.1506 32.6551 59.2308 29.3721 60.3649L23.1464 62.5062C19.9719 63.5977 17.8406 66.584 17.8406 69.9418V71.6815C31.1199 80.9869 48.8731 80.9971 62.1671 71.6815C62.1671 70.6637 62.1671 70.9551 62.1671 69.9418C62.1671 66.584 60.0356 63.5979 56.8612 62.5062Z" fill="#B9DCFF"/>
<path d="M58.1677 28.3615V35.6271C58.1677 37.5181 56.6579 39.1915 54.5016 39.1915V30.2129C54.5016 24.4088 47.7376 20.996 42.9034 24.9637C41.292 26.2868 38.7807 26.3402 37.1043 24.9637C32.27 20.996 25.5061 24.4088 25.5061 30.2129V39.1915C23.3534 39.1915 21.84 37.5209 21.84 35.6271C21.84 35.3021 21.84 28.6731 21.84 28.3715C21.84 4.29189 58.1577 4.29189 58.1677 28.3615Z" fill="#B9DCFF"/>
<path d="M62.1671 69.9418V71.6815C48.8878 80.9869 31.1345 80.9971 17.8406 71.6815C17.8406 70.6632 17.8406 70.9556 17.8406 69.9418C17.8406 66.584 19.9719 63.5979 23.1464 62.5063C30.0214 60.142 29.7541 60.2631 30.427 59.9133C34.1814 68.2254 45.8613 68.2254 49.629 59.9383C49.6458 59.9215 49.8943 60.1096 50.6355 60.3649L56.8612 62.5063C60.0357 63.5978 62.1671 66.584 62.1671 69.9418Z" fill="#B9DCFF"/>
<path d="M77.813 11.5175C78.9379 12.6806 78.9379 14.5254 77.813 15.6885L77.5631 15.9485C76.9198 16.6134 76.6182 17.5366 76.7482 18.4531L76.7999 18.8114C77.0248 20.4128 75.9417 21.9059 74.3469 22.1858L73.992 22.2475C73.0804 22.4075 72.2939 22.979 71.8606 23.7956L71.6923 24.1139C70.9324 25.5437 69.1777 26.1136 67.7246 25.4037L67.4013 25.2454C66.5698 24.8388 65.5966 24.8388 64.765 25.2454L64.4418 25.4037C62.9887 26.1136 61.2339 25.5437 60.474 24.1139L60.3057 23.7956C59.8725 22.979 59.0859 22.4075 58.1744 22.2475L57.8195 22.1858C56.2247 21.9059 55.1415 20.4128 55.3665 18.8114L55.4182 18.4531C55.5481 17.5366 55.2465 16.6134 54.6033 15.9485L54.3533 15.6885C53.2285 14.5254 53.2285 12.6806 54.3533 11.5175L54.6033 11.2575C55.2465 10.5926 55.5481 9.66777 55.4182 8.75291L55.3665 8.39463C55.1415 6.79321 56.2247 5.30011 57.8195 5.02015L58.1744 4.95849C59.0859 4.79852 59.8725 4.22694 60.3057 3.4104L60.474 3.09045C61.2339 1.66234 62.9887 1.09242 64.4418 1.80231L64.765 1.96062C65.5966 2.36723 66.5698 2.36723 67.4013 1.96062L67.7246 1.80231C69.1777 1.09242 70.9324 1.66234 71.6923 3.09045L71.8606 3.4104C72.2939 4.22694 73.0804 4.79852 73.992 4.95849L74.3469 5.02015C75.9417 5.30011 77.0248 6.79321 76.7999 8.39463L76.7482 8.75291C76.6182 9.66777 76.9198 10.5926 77.5631 11.2575L77.813 11.5175Z" fill="#F5E6A4"/>
<path d="M77.813 15.6885C77.7395 15.8023 76.5059 16.7442 76.7482 18.4531L76.7998 18.8114C77.0248 20.4128 75.9416 21.9059 74.3469 22.1858L73.9919 22.2475C73.0804 22.4075 72.2939 22.9791 71.8606 23.7956L71.6923 24.1139C70.9324 25.5437 69.1777 26.1136 67.7246 25.4037L67.4013 25.2454C66.5697 24.8383 65.5965 24.8383 64.765 25.2454L64.4417 25.4037C62.9886 26.1136 61.2339 25.5437 60.474 24.1139C60.3969 24.0191 59.8813 22.5471 58.1744 22.2475C58.1315 22.2288 57.7724 22.2112 57.3197 22.0507C56.7073 21.8336 57.0099 20.9109 57.6354 21.0862C66.4366 23.5536 74.9476 16.8973 74.805 7.84905C74.7848 6.56742 76.718 6.4571 76.82 7.73474C76.8372 7.95054 76.8312 8.1715 76.7998 8.39464C76.8063 8.51262 76.3556 10.0096 77.563 11.2575L77.813 11.5175C78.9378 12.6806 78.9378 14.5254 77.813 15.6885Z" fill="#F5E6A4"/>
<path d="M44.9854 13.6437C37.8207 13.6486 30.6598 17.4015 27.9624 24.902C26.4843 26.1435 25.5061 28.0048 25.5061 30.2128V39.1914C23.3534 39.1914 21.84 37.5209 21.84 35.627V28.3715C21.84 13.9367 34.892 8.15507 45.3487 11.0253C46.8504 11.4376 46.5428 13.6426 44.9854 13.6437Z" fill="#D1E7FF"/>
<path d="M38.0043 48.935C40.5924 50.3666 38.9523 54.3111 36.0993 53.5314C29.9594 51.853 25.5059 46.25 25.5059 39.6464C25.5059 29.4023 25.5036 30.1375 25.5111 29.9381C25.6304 26.7234 30.4541 26.8099 30.5185 30.0262C30.5505 31.6231 30.5448 33.6412 30.5053 36.3136C30.4213 41.9759 33.6691 46.537 38.0043 48.935Z" fill="#D1E7FF"/>
<path d="M45.595 54.9804C45.7823 55.6646 45.4178 56.3808 44.7463 56.6088C41.7659 57.621 38.2929 57.6458 35.2361 56.6002C34.574 56.3737 34.2127 55.6706 34.3944 54.9949C34.6727 53.9591 34.6462 53.2003 34.6632 53.056C38.0073 54.364 41.9305 54.3817 45.3165 53.0677C45.3212 53.1067 45.3017 53.9096 45.595 54.9804Z" fill="#A2D0FF"/>
<path d="M32.5534 63.0481C32.9868 63.4904 32.8223 64.23 32.2367 64.4314L28.1455 65.839C24.971 66.9305 22.8397 69.9167 22.8397 73.2746C22.8397 73.9101 22.1596 74.3107 21.6007 74.0078C20.3006 73.3029 19.0449 72.526 17.8405 71.6816V69.9419C17.8405 66.5841 19.974 63.604 23.1463 62.5064C29.3513 60.3594 29.5555 60.3664 30.4268 59.9135C30.9801 61.1388 31.7062 62.1836 32.5534 63.0481Z" fill="#D1E7FF"/>
<path d="M54.2491 74.5131C43.0389 79.1455 29.8062 78.1372 19.1737 70.9604V69.9409C19.1737 67.154 20.9445 64.6726 23.5797 63.7662L29.8048 61.6252C32.8904 60.5641 35.1463 57.946 35.8017 54.8343C45.7386 57.4955 55.3716 50.3816 55.8179 40.3643C57.9346 39.8129 59.5007 37.8985 59.5007 35.6276V31.1354C59.5007 30.3992 58.9038 29.8023 58.1675 29.8023C57.4313 29.8023 56.8344 30.3992 56.8344 31.1354V35.6276C56.8344 36.3958 56.4375 37.0745 55.8346 37.4759V30.2134C55.8346 23.2496 47.7332 19.2749 42.0579 23.9329C40.9057 24.8784 39.1013 24.878 37.9495 23.9329C32.2685 19.2702 24.1728 23.256 24.1728 30.2134V39.6469C24.1728 46.0681 27.9907 51.454 33.2595 53.9099C32.9061 56.2804 31.251 58.3084 28.9377 59.1039L22.7127 61.2449C19.2945 62.4206 16.9109 65.478 16.5553 69.0197C8.09543 62.1708 2.67627 51.7069 2.67627 39.9997C2.67627 15.3185 26.3906 -2.7277 50.2888 4.10658C50.9961 4.30938 51.7345 3.89928 51.937 3.19139C52.1395 2.4835 51.7297 1.74545 51.0218 1.54298C37.6922 -2.26893 22.5135 0.930072 11.724 11.7197C-3.90522 27.349 -3.90755 52.6479 11.724 68.2795C23.57 80.1255 40.8669 82.9279 55.2678 76.9772C55.9482 76.6959 56.2718 75.9165 55.9907 75.236C55.7093 74.5556 54.9302 74.2316 54.2491 74.5131ZM26.8392 39.6469V30.2134C26.8392 25.5536 32.275 22.7242 36.2581 25.9939C38.3933 27.7463 41.6139 27.7463 43.7494 25.9939C47.7358 22.7219 53.1683 25.5571 53.1683 30.2134V39.6469C53.1683 46.6584 47.5792 52.7036 40.0037 52.7036C32.4777 52.7038 26.8392 46.7038 26.8392 39.6469Z" fill="#478ECC"/>
<path d="M78.3719 28.6766C78.1638 27.9705 77.4226 27.5664 76.7163 27.7745C76.0101 27.9827 75.6062 28.7239 75.8143 29.4301C80.0313 43.7411 75.315 59.4443 63.4542 69.0384C63.1051 65.4886 60.7191 62.4224 57.295 61.2447L51.07 59.1037C50.0276 58.7453 49.0834 58.1192 48.3397 57.2932C47.847 56.7462 47.0041 56.7019 46.4568 57.1947C45.9097 57.6874 45.8656 58.5303 46.3582 59.0774C46.8111 59.5805 47.3199 60.0271 47.8676 60.4172C45.139 64.9177 39.4611 65.9803 35.34 63.5504C34.7056 63.1761 33.8884 63.3874 33.5145 64.0216C33.1406 64.6559 33.3515 65.4731 33.9858 65.8472C39.4326 69.0588 46.8204 67.4988 50.2461 61.64L56.428 63.766C59.0632 64.6724 60.8339 67.1538 60.8339 69.9407C60.8339 71.7969 60.7943 71.8894 60.9589 72.2415C61.3079 72.9901 62.2439 73.248 62.9323 72.7724C77.1064 62.8381 83.186 45.0146 78.3719 28.6766Z" fill="#478ECC"/>
<path d="M20.5068 28.3614V35.6276C20.5068 36.3638 21.1037 36.9607 21.84 36.9607C22.5762 36.9607 23.1731 36.3638 23.1731 35.6276V28.372C23.1731 13.9447 37.3312 8.67256 47.5083 13.2067C48.1811 13.5061 48.9689 13.2039 49.2686 12.5315C49.5682 11.8589 49.2657 11.0709 48.5933 10.7712C36.6973 5.47155 20.5068 11.9361 20.5068 28.3614Z" fill="#478ECC"/>
<path d="M53.6454 16.8744C54.0054 17.2465 54.1702 17.7539 54.0979 18.2662L54.0472 18.6238C53.7181 20.9509 55.2737 23.0919 57.5887 23.498L57.9439 23.5604C58.4539 23.6498 58.8853 23.9635 59.1281 24.4209L59.2972 24.7395C60.3932 26.8057 62.9058 27.6386 65.0272 26.6014L65.3513 26.4429C65.8164 26.2156 66.35 26.2156 66.8151 26.4429L67.1388 26.6012C69.2505 27.6336 71.7671 26.8155 72.869 24.7395L73.0381 24.4209C73.2809 23.9635 73.7125 23.65 74.2221 23.5605L74.5775 23.4982C76.8925 23.0921 78.4481 20.9511 78.119 18.6236L78.0683 18.2667C77.9958 17.7541 78.1608 17.2467 78.5208 16.8745L78.7716 16.6154C80.4058 14.9262 80.4058 12.2796 78.7716 10.5905L78.5208 10.3312C78.1608 9.95928 77.996 9.45186 78.0683 8.93944L78.119 8.58183C78.4481 6.25469 76.8925 4.11369 74.5775 3.70758L74.2223 3.64526C73.7123 3.55577 73.2809 3.24215 73.0381 2.78472L72.869 2.46611C71.7676 0.389926 69.2505 -0.428114 67.1388 0.604393L66.8149 0.762869C66.3498 0.990167 65.8164 0.990167 65.3513 0.762869L65.0273 0.604393C62.9155 -0.428281 60.3989 0.389926 59.2972 2.46611L59.1281 2.78472C58.8853 3.24215 58.4537 3.5556 57.9441 3.64509L57.5887 3.70741C55.2737 4.11352 53.7181 6.25452 54.0472 8.582L54.0979 8.93894C54.1703 9.45153 54.0054 9.95895 53.6454 10.3311L53.3946 10.5902C51.7604 12.2794 51.7604 14.926 53.3946 16.6151L53.6454 16.8744ZM55.311 12.4441L55.5618 12.1849C56.4975 11.2176 56.9263 9.89846 56.7378 8.56533L56.6871 8.20839C56.5606 7.31319 57.1589 6.48982 58.0492 6.33368L58.4049 6.27119C59.7303 6.03856 60.8525 5.22335 61.4834 4.03453L61.6525 3.71575C61.9523 3.15083 62.5242 2.82822 63.121 2.82822C63.5667 2.82822 63.8294 2.98636 64.1806 3.15817C65.3898 3.74924 66.7771 3.74924 67.9861 3.15817L68.3102 2.99969C69.1215 2.60242 70.0902 2.91704 70.5142 3.71591L70.6833 4.03453C71.3142 5.22335 72.4364 6.03872 73.762 6.27135L74.1174 6.33368C75.0078 6.48982 75.606 7.31319 75.4796 8.20805L75.4289 8.56567C75.2404 9.89846 75.669 11.2176 76.6049 12.1848L76.8557 12.4441C77.4843 13.0938 77.4843 14.1116 76.8557 14.7614L76.6049 15.0207C75.6692 15.988 75.2404 17.3071 75.4289 18.6401L75.4796 18.9971C75.606 19.8923 75.0078 20.7156 74.1174 20.8718L73.7618 20.9343C72.4364 21.1669 71.3142 21.9821 70.6833 23.1709L70.5142 23.4897C70.0904 24.2882 69.1224 24.6029 68.31 24.2058L67.9862 24.0474C66.7767 23.4562 65.3898 23.4562 64.1806 24.0474L63.8565 24.2059C63.0446 24.6027 62.0763 24.2884 61.6525 23.4897L61.4834 23.1711C60.8525 21.9823 59.7303 21.1669 58.4047 20.9343L58.0492 20.8719C57.1589 20.7158 56.5606 19.8924 56.6871 18.9976L56.7378 18.6399C56.9263 17.3073 56.4977 15.9882 55.5618 15.0208L55.311 14.7615C54.6824 14.1116 54.6824 13.0938 55.311 12.4441Z" fill="#FFD84F"/>
<path d="M63.6852 18.6123C64.2288 19.1559 65.1186 19.1277 65.6267 18.5525L72.1286 11.1953C72.6162 10.6436 72.5642 9.80118 72.0126 9.31359C71.4607 8.82617 70.6183 8.87816 70.1309 9.42974L64.5679 15.7244L63.1744 14.3308C62.6537 13.8102 61.8098 13.8102 61.2891 14.3308C60.7685 14.8514 60.7685 15.6954 61.2891 16.216L63.6852 18.6123Z" fill="#478ECC"/>
</g>
<defs>
<clipPath id="clip0_167_738">
<rect width="80" height="80" fill="white"/>
</clipPath>
</defs>
</svg>
