<svg width="80" height="80" viewBox="0 0 80 80" fill="none" xmlns="http://www.w3.org/2000/svg">
<g clip-path="url(#clip0_167_702)">
<path d="M68.0012 6.51611H5.33975C3.13161 6.51611 1.34009 8.30763 1.34009 10.5158V56.037L16.5705 71.2657H68.0012C70.2093 71.2657 72.0009 69.4759 72.0009 67.2661V10.5158C72.0009 8.30763 70.2093 6.51611 68.0012 6.51611Z" fill="#D1E7FF"/>
<path d="M8.0062 18.1151V62.7031L1.34009 56.037V18.1151H8.0062Z" fill="#E8F3FF"/>
<path d="M16.5705 60.0367V71.2657L1.34009 56.037H12.5708C14.779 56.037 16.5705 57.8268 16.5705 60.0367Z" fill="#B9DCFF"/>
<path d="M36.6721 56.0853C39.0653 56.0853 41.0051 58.0252 41.0051 60.4183C41.0051 62.8114 39.0653 64.7513 36.6721 64.7513H34.5656C32.1725 64.7513 30.2327 62.8114 30.2327 60.4183C30.2327 58.0252 32.1725 56.0853 34.5656 56.0853H36.6721Z" fill="#B9DCFF"/>
<path d="M36.6721 40.4199C39.0653 40.4199 41.0051 42.3598 41.0051 44.7529C41.0051 47.146 39.0653 49.0859 36.6721 49.0859H34.5656C32.1725 49.0859 30.2327 47.146 30.2327 44.7529C30.2327 42.3598 32.1725 40.4199 34.5656 40.4199H36.6721Z" fill="#B9DCFF"/>
<path d="M17.677 40.4199C20.0701 40.4199 22.01 42.3598 22.01 44.7529C22.01 47.146 20.0701 49.0859 17.677 49.0859H15.5705C13.1774 49.0859 11.2375 47.146 11.2375 44.7529C11.2375 42.3598 13.1774 40.4199 15.5705 40.4199H17.677Z" fill="#B9DCFF"/>
<path d="M36.6721 24.7546C39.0653 24.7546 41.0051 26.6945 41.0051 29.0876C41.0051 31.4807 39.0653 33.4206 36.6721 33.4206H34.5656C32.1725 33.4206 30.2327 31.4807 30.2327 29.0876C30.2327 26.6945 32.1725 24.7546 34.5656 24.7546H36.6721Z" fill="#B9DCFF"/>
<path d="M17.677 24.7546C20.0701 24.7546 22.01 26.6945 22.01 29.0876C22.01 31.4807 20.0701 33.4206 17.677 33.4206H15.5705C13.1774 33.4206 11.2375 31.4807 11.2375 29.0876C11.2375 26.6945 13.1774 24.7546 15.5705 24.7546H17.677Z" fill="#B9DCFF"/>
<path d="M72.0009 10.5158V18.1151H1.34009V10.5158C1.34009 8.30763 3.13161 6.51611 5.33975 6.51611H68.0012C70.2093 6.51611 72.0009 8.30763 72.0009 10.5158Z" fill="#B9DCFF"/>
<path d="M71.9442 9.84917H12.0059C9.79772 9.84917 8.0062 11.6407 8.0062 13.8488V18.1151H1.34009V10.5158C1.34009 8.30763 3.13161 6.51611 5.33975 6.51611H68.0012C69.981 6.51611 71.6276 7.95766 71.9442 9.84917Z" fill="#D1E7FF"/>
<path d="M58.9882 8.57663C60.1296 5.95346 58.9284 2.90169 56.3052 1.76031C53.682 0.618935 50.6303 1.82016 49.4889 4.44333C48.3475 7.0665 49.5487 10.1183 52.1719 11.2596C54.7951 12.401 57.8468 11.1998 58.9882 8.57663Z" fill="#D1E7FF"/>
<path d="M58.072 3.02641C54.9633 2.7411 52.3975 5.18189 52.3975 8.18264C52.3975 9.52587 52.9091 10.7524 53.7507 11.6724C51.1226 11.424 49.0645 9.21089 49.0645 6.51612C49.0645 3.65635 51.3843 1.33655 54.244 1.33655C55.7606 1.33655 57.1254 1.98816 58.072 3.02641Z" fill="#E8F3FF"/>
<path d="M23.8452 8.58029C24.9865 5.95712 23.7853 2.90535 21.1621 1.76397C18.539 0.622597 15.4872 1.82382 14.3458 4.44699C13.2044 7.07016 14.4057 10.1219 17.0288 11.2633C19.652 12.4047 22.7038 11.2035 23.8452 8.58029Z" fill="#D1E7FF"/>
<path d="M22.9249 3.02641C19.8162 2.7411 17.2504 5.18189 17.2504 8.18264C17.2504 9.52587 17.762 10.7524 18.6036 11.6724C15.9755 11.424 13.9174 9.21089 13.9174 6.51612C13.9174 3.65635 16.2372 1.33655 19.0969 1.33655C20.6135 1.33655 21.9784 1.98816 22.9249 3.02641Z" fill="#E8F3FF"/>
<path d="M67.8011 55.5437C74.5831 52.103 78.6669 45.7465 78.6669 37.0469C78.6669 34.4955 76.597 32.4257 74.0439 32.4257H54.5456C51.9924 32.4257 49.9226 34.4955 49.9226 37.0469C49.9226 45.7334 53.9978 52.0987 60.7884 55.5437C53.9584 59.0128 49.9226 65.4027 49.9226 74.0422C49.9226 76.5936 51.9924 78.6635 54.5456 78.6635H74.0439C76.597 78.6635 78.6669 76.5936 78.6669 74.0422C78.6669 65.3902 74.6202 59.0073 67.8011 55.5437Z" fill="#FFD84F"/>
<path d="M62.5662 62.1603C60.489 64.097 58.5308 66.7759 57.4054 70.4391C55.1339 70.8991 52.6758 70.6991 50.2527 69.8908C51.6409 61.5382 57.1004 57.4169 60.7885 55.5437H62.5117C64.5675 57.4755 64.3988 60.4515 62.5662 62.1603Z" fill="#E8F3FF"/>
<path d="M78.4836 35.7587H61.045C58.4919 35.7587 56.4221 37.8285 56.4221 40.38C56.4221 41.0366 56.4454 41.6699 56.4887 42.2848H50.4609C50.1176 40.7066 49.9226 38.9651 49.9226 37.0469C49.9226 34.4955 51.9924 32.4257 54.5456 32.4257H74.0439C76.1504 32.4257 77.9269 33.8339 78.4836 35.7587Z" fill="#F5E6A4"/>
<path d="M78.3369 69.8908C78.5502 71.1724 78.6669 72.5539 78.6669 74.0421C78.6669 76.5936 76.597 78.6634 74.0439 78.6634H54.5456C51.9924 78.6634 49.9226 76.5936 49.9226 74.0421C49.9226 72.5539 50.0393 71.1724 50.2526 69.8908C54.5989 71.3407 59.0602 70.8357 62.3449 68.0593C63.4631 67.1127 65.1263 67.1127 66.2446 68.0593C69.531 70.8357 73.9906 71.3407 78.3369 69.8908Z" fill="#FFD84F"/>
<path d="M56.4221 77.3752C56.4221 77.8219 56.4854 78.2552 56.6054 78.6635H54.5456C51.9924 78.6635 49.9226 76.5936 49.9226 74.0422C49.9226 72.554 50.0393 71.1724 50.2526 69.8909C52.6757 70.6991 55.1338 70.8991 57.4053 70.4392C56.7247 72.6503 56.4221 74.9776 56.4221 77.3752Z" fill="#F5E6A4"/>
<path d="M50.4609 42.2848H78.1286C76.4688 49.9125 71.3259 53.7555 67.8012 55.5437H60.7884C57.2637 53.7555 52.1208 49.9125 50.4609 42.2848Z" fill="#B9DCFF"/>
<path d="M62.5116 55.5437H60.7884C57.2637 53.7555 52.1208 49.9125 50.4609 42.2848H56.4888C56.8532 47.4667 58.7841 52.0446 62.5116 55.5437Z" fill="#D1E7FF"/>
<path d="M43.0086 69.9321H17.1226L4.55894 57.3699H12.5706C14.0408 57.3699 15.237 58.5661 15.237 60.0363V63.2185C15.237 63.9548 15.834 64.5518 16.5703 64.5518C17.3065 64.5518 17.9035 63.9548 17.9035 63.2185V60.0363C17.9035 57.0957 15.5112 54.7034 12.5706 54.7034H2.67309V19.4478H63.3937C64.13 19.4478 64.7269 18.8509 64.7269 18.1146C64.7269 17.3783 64.13 16.7814 63.3937 16.7814H2.67326V10.5154C2.67326 9.04521 3.86949 7.84898 5.33971 7.84898H13.917C14.6533 7.84898 15.2502 7.25203 15.2502 6.51575C15.2502 4.39493 16.9757 2.66974 19.0967 2.66974C21.2177 2.66974 22.9431 4.39526 22.9431 6.51625C22.9431 9.40885 19.8637 11.2472 17.33 9.9343C16.6751 9.59516 15.8713 9.85081 15.5329 10.5044C15.1941 11.1582 15.4494 11.9628 16.1031 12.3016C20.4056 14.5318 25.6095 11.4052 25.6095 6.51625C25.6095 2.92505 22.6879 0.0032959 19.0967 0.0032959C15.9622 0.0032959 13.3379 2.22878 12.7209 5.18253H5.33971C2.39912 5.18253 0.00681626 7.57483 0.00681626 10.5154C0.00681626 59.342 -0.0326804 56.1355 0.078477 56.4636C0.124806 56.6012 0.178635 56.7019 0.255629 56.8099C0.375786 56.9782 15.6663 72.2481 15.7263 72.2974C15.9362 72.4693 16.1885 72.5676 16.4401 72.5922C16.5426 72.6022 14.6024 72.5987 43.0086 72.5987C43.7448 72.5987 44.3418 72.0018 44.3418 71.2655C44.3418 70.5293 43.7448 69.9321 43.0086 69.9321Z" fill="#478ECC"/>
<path d="M31.2863 7.84898H47.8688C48.8426 12.5128 54.3136 14.5444 58.0949 11.7691C58.6886 11.3334 58.8164 10.4989 58.3808 9.90547C57.945 9.31202 57.111 9.18403 56.5169 9.61966C54.0081 11.4615 50.3993 9.68032 50.3976 6.51809L50.3978 6.51575C50.3201 4.60475 51.9951 2.66974 54.2439 2.66974C56.3649 2.66974 58.0904 4.39526 58.0904 6.51625C58.0904 7.25103 58.6861 7.84931 59.4237 7.84931H68.001C69.4712 7.84931 70.6674 9.04538 70.6674 10.5156V27.1357C70.6674 27.872 71.2644 28.4689 72.0006 28.4689C72.7369 28.4689 73.3338 27.872 73.3338 27.1357V10.5154C73.3338 7.57483 70.9415 5.1827 68.001 5.1827H60.6199C60.003 2.22878 57.3787 0.0032959 54.2441 0.0032959C51.1099 0.0032959 48.4862 2.22878 47.8691 5.18253H31.2863C30.5501 5.18253 29.9531 5.77948 29.9531 6.51575C29.9531 7.25203 30.5501 7.84898 31.2863 7.84898Z" fill="#478ECC"/>
<path d="M68.4053 54.3554C68.2183 54.2606 68.0117 54.2111 67.802 54.2111H61.1124C58.2255 52.6866 54.0558 49.545 52.2047 43.6182H71.2051C71.9414 43.6182 72.5383 43.0212 72.5383 42.2849C72.5383 41.5487 71.9414 40.9517 71.2051 40.9517H51.5729C51.3709 39.746 51.2562 38.4489 51.2562 37.0472C51.2562 35.2339 52.7318 33.7585 54.5451 33.7585H74.0445C75.858 33.7585 77.3334 35.2339 77.3334 37.0474C77.3334 42.5039 75.6852 47.0204 72.4345 50.4711C71.9297 51.007 71.9548 51.8508 72.4908 52.3558C73.0268 52.8609 73.8705 52.8352 74.3755 52.2994C78.1077 48.3376 79.9998 43.2062 79.9998 37.0474C79.9998 33.7637 77.3282 31.092 74.0445 31.092H54.5453C51.2616 31.092 48.59 33.7635 48.59 37.0472C48.59 46.2609 52.9793 53.0772 60.1847 56.7332C60.561 56.9242 60.6325 56.8776 62.9618 56.8776V60.4678C62.9618 61.204 63.5587 61.801 64.295 61.801C65.0313 61.801 65.6282 61.204 65.6282 60.4678V56.8776H67.4776C71.2869 58.8891 77.3337 63.7117 77.3337 74.0413C77.3337 75.8546 75.8582 77.33 74.0448 77.33H54.5453C52.7318 77.33 51.2564 75.8546 51.2564 74.0411C51.2564 73.2012 51.3001 72.3863 51.3781 71.5913C55.637 72.5911 59.9232 71.852 63.2059 69.0764C63.8269 68.5513 64.7635 68.5513 65.3842 69.0764C67.2154 70.6251 69.3829 71.5738 71.8262 71.8965C72.5573 71.9928 73.2259 71.4792 73.3226 70.7492C73.4189 70.0193 72.9053 69.3494 72.1752 69.2529C70.2465 68.9982 68.541 68.2538 67.1061 67.0402C65.5037 65.6853 63.0866 65.685 61.4842 67.0402C58.9443 69.1879 55.4634 69.862 51.7982 68.9521C52.5048 65.8073 53.9017 63.0764 55.9847 60.8011C56.4816 60.2579 56.4446 59.4147 55.9014 58.9174C55.3582 58.4201 54.5151 58.4574 54.0177 59.0005C50.4161 62.9351 48.59 67.9955 48.59 74.0411C48.59 77.3249 51.2616 79.9965 54.5453 79.9965H74.0447C77.3284 79.9965 80 77.325 80 74.0413C80 62.0315 72.7355 56.5524 68.4053 54.3554Z" fill="#478ECC"/>
<path d="M17.6773 23.4207H15.5705C12.4461 23.4207 9.9043 25.9624 9.9043 29.0868C9.9043 32.2113 12.4461 34.753 15.5705 34.753H17.6775C20.8019 34.753 23.3437 32.2113 23.3437 29.0868C23.3437 25.9624 20.8017 23.4207 17.6773 23.4207ZM17.6773 32.0866H15.5705C13.9165 32.0866 12.5707 30.7409 12.5707 29.0868C12.5707 27.4328 13.9165 26.0871 15.5705 26.0871H17.6775C19.3315 26.0871 20.6772 27.4328 20.6772 29.0868C20.6772 30.7409 19.3313 32.0866 17.6773 32.0866Z" fill="#478ECC"/>
<path d="M36.673 23.4207H34.566C31.4416 23.4207 28.8998 25.9624 28.8998 29.0868C28.8998 32.2113 31.4416 34.753 34.566 34.753H36.673C39.7974 34.753 42.3392 32.2113 42.3392 29.0868C42.3392 25.9624 39.7974 23.4207 36.673 23.4207ZM36.673 32.0866H34.566C32.9119 32.0866 31.5662 30.7409 31.5662 29.0868C31.5662 27.4328 32.9119 26.0871 34.566 26.0871H36.673C38.327 26.0871 39.6727 27.4328 39.6727 29.0868C39.6727 30.7409 38.3268 32.0866 36.673 32.0866Z" fill="#478ECC"/>
<path d="M17.6773 39.0861H15.5705C12.4461 39.0861 9.9043 41.6279 9.9043 44.7523C9.9043 47.8767 12.4461 50.4185 15.5705 50.4185H17.6775C20.8019 50.4185 23.3437 47.8767 23.3437 44.7523C23.3437 41.6279 20.8017 39.0861 17.6773 39.0861ZM17.6773 47.752H15.5705C13.9165 47.752 12.5707 46.4063 12.5707 44.7523C12.5707 43.0982 13.9165 41.7525 15.5705 41.7525H17.6775C19.3315 41.7525 20.6772 43.0982 20.6772 44.7523C20.6772 46.4063 19.3313 47.752 17.6773 47.752Z" fill="#478ECC"/>
<path d="M36.673 39.0861H34.566C31.4416 39.0861 28.8998 41.6279 28.8998 44.7523C28.8998 47.8767 31.4416 50.4185 34.566 50.4185H36.673C39.7974 50.4185 42.3392 47.8767 42.3392 44.7523C42.3392 41.6279 39.7974 39.0861 36.673 39.0861ZM36.673 47.752H34.566C32.9119 47.752 31.5662 46.4063 31.5662 44.7523C31.5662 43.0982 32.9119 41.7525 34.566 41.7525H36.673C38.327 41.7525 39.6727 43.0982 39.6727 44.7523C39.6727 46.4063 38.3268 47.752 36.673 47.752Z" fill="#478ECC"/>
<path d="M36.673 54.7513H34.566C31.4416 54.7513 28.8998 57.2931 28.8998 60.4175C28.8998 63.5419 31.4416 66.0837 34.566 66.0837H36.673C39.7974 66.0837 42.3392 63.5419 42.3392 60.4175C42.3392 57.2931 39.7974 54.7513 36.673 54.7513ZM36.673 63.4173H34.566C32.9119 63.4173 31.5662 62.0716 31.5662 60.4175C31.5662 58.7635 32.9119 57.4178 34.566 57.4178H36.673C38.327 57.4178 39.6727 58.7635 39.6727 60.4175C39.6727 62.0716 38.3268 63.4173 36.673 63.4173Z" fill="#478ECC"/>
</g>
<defs>
<clipPath id="clip0_167_702">
<rect width="80" height="80" fill="white"/>
</clipPath>
</defs>
</svg>
