<svg width="80" height="80" viewBox="0 0 80 80" fill="none" xmlns="http://www.w3.org/2000/svg">
<path d="M69.8147 60.9859C71.5051 57.2002 71.4585 54.9451 69.4283 51.2944C71.6317 47.3238 71.4135 44.4375 67.8777 41.2148C71.4563 30.5076 60.5686 29.3461 49.6838 32.5559C49.9413 27.2248 49.0018 21.6883 47.0356 16.2656C44.3299 8.80286 33.1487 11.8337 34.8858 19.7898C36.543 27.3728 33.4002 34.9642 26.9198 39.2745C26.5634 37.0544 24.6364 35.3572 22.3163 35.3572H13.1561C10.5812 35.3572 8.49271 37.4458 8.49271 40.0206V70.6658C8.49271 73.2406 10.5812 75.3292 13.1561 75.3292H22.3163C24.5296 75.3292 26.4774 73.7708 26.9024 71.5043C26.9028 71.5062 26.9031 71.5102 26.9031 71.5102C48.8394 74.2599 78.5285 79.338 69.8147 60.9859Z" fill="#D1E7FF"/>
<path d="M66.3268 36.0742C63.8951 35.8317 61.0415 36.0757 58.0722 36.6961C56.3801 37.0497 54.7651 35.8004 54.6953 34.0731C54.6282 32.4118 55.8295 31.1949 57.2821 31.0755C61.9047 30.6953 65.7991 31.4979 67.5621 33.9853C68.2251 34.9208 67.4676 36.1881 66.3268 36.0742Z" fill="#E8F3FF"/>
<path d="M42.215 12.042C44.6855 12.4266 45.3295 15.7488 43.1549 16.9824C40.7786 18.3303 39.1122 21.2562 39.8825 24.7863C41.155 30.6087 39.2796 39.2068 30.9251 43.8762C29.1612 44.862 26.9872 43.5654 26.9811 41.5447C26.9742 39.2941 26.9569 39.5043 26.92 39.2744C33.4004 34.9641 36.5417 27.3731 34.886 19.7898C33.743 14.5551 38.2648 11.4271 42.215 12.042Z" fill="#E8F3FF"/>
<path d="M26.92 39.2744C26.5635 37.0543 24.6366 35.3572 22.3165 35.3572H13.1563C10.5814 35.3572 8.49289 37.4457 8.49289 40.0206V70.6657C8.49289 73.2406 10.5814 75.3291 13.1563 75.3291H22.3165C24.9014 75.3291 26.9799 73.2296 26.9799 70.6657C26.9797 37.9487 27.0081 39.8115 26.92 39.2744Z" fill="#B9DCFF"/>
<path d="M22.4231 38.6882H18.1528C15.5772 38.6882 13.4894 40.776 13.4894 43.3516V70.7682C13.4894 74.0082 8.49289 74.2372 8.49289 70.6657V40.0206C8.49289 37.445 10.5808 35.3572 13.1563 35.3572C13.1563 35.3572 22.4664 35.3588 22.5414 35.3622C24.6814 35.4638 24.5648 38.6882 22.4231 38.6882Z" fill="#D1E7FF"/>
<path d="M13.7757 18.9903C14.9732 19.8181 14.9699 21.6068 13.7724 22.4363C12.1918 23.5305 10.8178 24.9029 9.7202 26.4901C8.89412 27.6859 7.10704 27.6826 6.28095 26.4867C5.18672 24.9062 3.81435 23.5322 2.22713 22.4346C1.0313 21.6052 1.03297 19.8164 2.23046 18.9887C3.81268 17.8944 5.18672 16.5204 6.28262 14.9349C7.1087 13.739 8.89578 13.7407 9.72187 14.9365C10.8161 16.5187 12.1885 17.8928 13.7757 18.9903Z" fill="#F5E6A4"/>
<path d="M77.7241 9.88339C78.9849 10.7561 78.9832 12.6398 77.7224 13.5108C76.0553 14.6634 74.6096 16.1107 73.4554 17.7812C72.5844 19.0403 70.7024 19.037 69.8313 17.7779C68.6805 16.1124 67.2365 14.665 65.5643 13.5092C64.3035 12.6381 64.3069 10.7544 65.5676 9.88173C67.2331 8.72921 68.6788 7.28355 69.8346 5.61306C70.704 4.35394 72.5861 4.35561 73.4571 5.61473C74.608 7.28022 76.0536 8.72754 77.7241 9.88339Z" fill="#F5E6A4"/>
<path d="M70.9375 51.2896C73.0044 47.1885 72.5344 43.9889 69.3921 40.8206C70.6674 36.282 69.2925 33.6903 67.8612 32.2973C63.5114 28.0641 53.6282 29.6042 46.4864 32.2092C45.795 32.4613 45.4391 33.2261 45.6913 33.9175C45.9436 34.6087 46.7082 34.9649 47.3996 34.7126C55.589 31.7253 63.2389 31.5173 66.0027 34.2069C67.4105 35.5771 67.6162 37.7926 66.6136 40.7918C66.4464 41.292 66.5897 41.8437 66.9796 42.199C69.9459 44.9028 70.2697 47.0343 68.2631 50.6466C68.0394 51.0491 68.0394 51.5386 68.2634 51.9412C70.0621 55.1754 70.1341 57.0028 68.5988 60.4422C68.4401 60.7978 68.4448 61.205 68.6118 61.5567C70.276 65.0621 70.4812 67.7191 69.2212 69.4539C67.4791 71.8527 62.7431 73.0347 55.1554 72.9651C43.894 72.8626 27.7897 70.0265 26.7014 70.1938C26.1298 70.2815 25.6928 70.7265 25.593 71.2701C25.3042 72.85 23.926 73.9967 22.3162 73.9967H13.1564C11.3196 73.9967 9.8251 72.5022 9.8251 70.6653V40.0209C9.8251 38.184 11.3196 36.6895 13.1564 36.6895H22.316C24.1529 36.6895 25.6473 38.184 25.6473 40.0209V63.8371C25.6473 64.573 26.2439 65.1695 26.9797 65.1695C27.7155 65.1695 28.3121 64.573 28.3121 63.8371C28.3121 63.8371 28.3103 39.9617 28.31 39.9321C34.8097 35.243 37.8941 27.3125 36.1881 19.5044C35.4738 16.2349 37.4574 14.133 39.7404 13.5003C41.997 12.8751 44.7374 13.6194 45.7742 16.6911C45.7805 16.7099 45.7874 16.7284 45.7945 16.7469C46.9788 19.8002 47.7696 22.9963 48.1444 26.2465C48.2285 26.9775 48.8915 27.502 49.6205 27.4175C50.3517 27.3333 50.8758 26.6722 50.7915 25.9412C50.392 22.4752 49.4836 19.0917 48.2893 15.81C44.9633 6.67094 31.5187 10.6183 33.5848 20.0732C34.9879 26.4955 32.6416 33.0151 27.572 37.1382C26.551 35.284 24.5781 34.0247 22.316 34.0247H13.1564C9.85009 34.0247 7.16031 36.7145 7.16031 40.0209V70.6655C7.16031 73.9717 9.85009 76.6616 13.1564 76.6616H22.316C24.7788 76.6616 26.9396 75.1685 27.8521 72.9727C46.354 75.3529 66.0771 78.3183 71.3772 71.0199C73.1751 68.5442 73.1396 65.1647 71.274 60.9688C72.8162 57.2752 72.7334 54.7672 70.9375 51.2896Z" fill="#478ECC"/>
<path d="M17.8195 69.4999C19.2912 69.4999 20.4843 68.3068 20.4843 66.8351C20.4843 65.3634 19.2912 64.1703 17.8195 64.1703C16.3478 64.1703 15.1547 65.3634 15.1547 66.8351C15.1547 68.3068 16.3478 69.4999 17.8195 69.4999Z" fill="#478ECC"/>
<path d="M78.4824 8.78801C76.9411 7.72209 75.6191 6.39969 74.5525 4.85761C73.1538 2.83486 70.1381 2.82986 68.7381 4.85527C67.6725 6.39702 66.3504 7.7196 64.8088 8.78618C64.2036 9.20489 64.0525 10.0348 64.4712 10.64C64.8903 11.2453 65.72 11.3962 66.3251 10.9776C68.132 9.72752 69.6812 8.17744 70.9302 6.37054C71.2705 5.87806 72.0191 5.87922 72.3607 6.37321C73.6105 8.18061 75.1602 9.73035 76.9665 10.9798C77.4616 11.3224 77.4584 12.0739 76.9638 12.4161C75.1569 13.6661 73.6076 15.2163 72.3585 17.0234C72.0183 17.5157 71.2696 17.5146 70.928 17.0207C70.3671 16.2095 69.7349 15.4382 69.049 14.7283C68.5379 14.1992 67.694 14.1847 67.1648 14.6962C66.6357 15.2075 66.6212 16.0511 67.1327 16.5802C67.7181 17.186 68.2576 17.844 68.7362 18.5363C70.1349 20.5591 73.1506 20.5641 74.5507 18.5387C75.6162 16.9969 76.9383 15.6743 78.4801 14.6078C80.5035 13.2074 80.5088 10.1895 78.4824 8.78801Z" fill="#FFD84F"/>
<path d="M10.8167 27.2474C11.2561 26.6119 11.7499 26.0065 12.2846 25.448C12.7934 24.9164 12.7749 24.073 12.2434 23.5642C11.7118 23.0555 10.8684 23.0737 10.3594 23.6053C9.72752 24.2654 9.14392 24.981 8.62462 25.7323C8.32816 26.1612 7.67446 26.1604 7.37667 25.7298C6.18534 24.007 4.70804 22.5294 2.98591 21.3384C2.55438 21.0399 2.55688 20.3832 2.98841 20.0848C4.71104 18.893 6.18817 17.4153 7.37866 15.6927C7.67529 15.2635 8.32933 15.265 8.62679 15.6952C9.81812 17.4182 11.2954 18.8958 13.0174 20.0868C13.6224 20.5052 14.4522 20.3543 14.8712 19.7489C15.2898 19.1436 15.1384 18.3137 14.5333 17.8952C13.0765 16.8875 11.8267 15.6376 10.8186 14.1796C9.46337 12.2205 6.54258 12.2155 5.18654 14.1776C4.17924 15.6349 2.92945 16.8852 1.47214 17.8935C-0.488147 19.2499 -0.492477 22.1728 1.46998 23.5302C2.92696 24.538 4.17691 25.7879 5.18487 27.2456C6.53975 29.2047 9.46087 29.209 10.8167 27.2474Z" fill="#FFD84F"/>
</svg>
