<svg width="80" height="80" viewBox="0 0 80 80" fill="none" xmlns="http://www.w3.org/2000/svg">
<g clip-path="url(#clip0_167_660)">
<path d="M71.116 24.6687C71.152 24.9259 71.4625 25.0425 71.659 24.8729C74.9313 22.0477 80.1763 25.7623 78.2062 29.9816C75.9258 34.861 70.3225 36.8628 67.2864 35.7235C64.2937 34.6008 61.3611 29.4195 62.8607 24.2215C64.1511 19.7544 70.5146 20.3787 71.116 24.6687Z" fill="#F5E6A4"/>
<path d="M58.2199 16.1575L55.696 9.62166C55.1655 8.24709 53.6191 7.56314 52.2445 8.09361L3.07026 27.0874C1.69569 27.6179 1.01174 29.1642 1.54222 30.5388L4.06783 37.0747C4.59831 38.4493 6.14303 39.1332 7.51927 38.6027L56.6919 19.609C58.0681 19.0785 58.752 17.5338 58.2199 16.1575Z" fill="#D1E7FF"/>
<path d="M21.4323 20.0034L33.8837 15.199L38.3276 26.7162L25.8763 31.5206L21.4323 20.0034Z" fill="#B9DCFF"/>
<path d="M61.1209 42.7998H14.4122C12.9375 42.7998 11.7431 43.9942 11.7431 45.4689V75.9963C11.7431 77.471 12.9375 78.6654 14.4122 78.6654H61.1209C62.5955 78.6654 63.79 77.471 63.79 75.9963V45.4689C63.79 43.9942 62.5955 42.7998 61.1209 42.7998Z" fill="#D1E7FF"/>
<path d="M31.0939 42.7998H44.4392V78.6654H31.0939V42.7998Z" fill="#B9DCFF"/>
<path d="M22.1288 21.7953C22.3942 22.4829 22.0522 23.2556 21.3646 23.5212L8.24145 28.5889C6.86688 29.1194 6.18293 30.6658 6.7134 32.0403L8.54305 36.7764C8.80862 37.4637 8.46682 38.2361 7.7797 38.502L7.51896 38.6029C6.14272 39.1334 4.598 38.4494 4.06752 37.0749L1.54192 30.539C1.01144 29.1644 1.69539 27.618 3.06996 27.0876L21.4332 19.9945L22.1288 21.7953Z" fill="#E8F3FF"/>
<path d="M53.4796 11.1156L36.3043 17.7499C35.6169 18.0155 34.8437 17.6734 34.5781 16.9859L33.883 15.1866L52.2445 8.09357C54.4322 7.24847 55.4422 10.3576 53.4796 11.1156Z" fill="#E8F3FF"/>
<path d="M33.8151 18.711L23.8553 22.5589C23.1677 22.8247 22.3943 22.4829 22.1288 21.7953L21.4335 19.9943L33.883 15.1866L34.5781 16.9859C34.8437 17.6735 34.5027 18.4454 33.8151 18.711Z" fill="#D1E7FF"/>
<path d="M66.0069 30.9026C66.3197 32.4535 64.1621 33.1571 63.4875 31.726C62.4703 29.5677 62.1004 26.8568 62.8608 24.2214C63.4877 22.0536 65.3071 21.0849 67.0841 21.1518C68.3512 21.1995 68.8343 22.8418 67.7976 23.5718C67.0789 24.0779 66.499 24.8443 66.1973 25.8896C65.7003 27.6114 65.69 29.3313 66.0069 30.9026Z" fill="#D1E7FF"/>
<path d="M63.79 45.4689V46.4698C63.79 47.2068 63.1924 47.8043 62.4554 47.8043H45.7737C45.0367 47.8043 44.4392 47.2068 44.4392 46.4698V42.7998H61.1209C62.5951 42.7998 63.79 43.9947 63.79 45.4689Z" fill="#E8F3FF"/>
<path d="M31.0939 42.7998V46.4698C31.0939 47.2068 30.4963 47.8043 29.7593 47.8043H21.0848C19.6107 47.8043 18.4158 48.9992 18.4158 50.4734V77.3309C18.4158 78.0679 17.8182 78.6654 17.0812 78.6654H14.4122C12.938 78.6654 11.7431 77.4705 11.7431 75.9963V45.4689C11.7431 43.9947 12.938 42.7998 14.4122 42.7998H31.0939Z" fill="#E8F3FF"/>
<path d="M44.4392 42.7998V46.4698C44.4392 47.2068 43.8417 47.8043 43.1047 47.8043H32.4284C31.6914 47.8043 31.0939 47.2068 31.0939 46.4698V42.7998H44.4392Z" fill="#D1E7FF"/>
<path d="M61.1209 41.4653H51.7791C51.0421 41.4653 50.4446 42.0629 50.4446 42.7999C50.4446 43.5369 51.0421 44.1344 51.7791 44.1344H61.1209C61.8567 44.1344 62.4554 44.7331 62.4554 45.4689V75.9964C62.4554 76.7322 61.8567 77.3309 61.1209 77.3309H32.4284V49.6447C32.4284 48.9077 31.8308 48.3102 31.0939 48.3102C30.3569 48.3102 29.7593 48.9077 29.7593 49.6447V77.3309H14.4122C13.6763 77.3309 13.0776 76.7322 13.0776 75.9964V45.4689C13.0776 44.7331 13.6763 44.1344 14.4122 44.1344H43.1047V73.1499C43.1047 73.8868 43.7022 74.4844 44.4392 74.4844C45.1762 74.4844 45.7737 73.8868 45.7737 73.1499V42.7999C45.7737 42.0629 45.1762 41.4653 44.4392 41.4653H14.4122C12.2045 41.4653 10.4086 43.2614 10.4086 45.4689V75.9964C10.4086 78.2039 12.2045 80 14.4122 80H61.1209C63.3285 80 65.1245 78.2039 65.1245 75.9964V45.4689C65.1245 43.2614 63.3285 41.4653 61.1209 41.4653Z" fill="#478ECC"/>
<path d="M19.7743 33.8689C19.5088 33.1815 18.7361 32.8389 18.0486 33.1049L7.03803 37.3578C6.35208 37.6233 5.57755 37.2802 5.31231 36.5936L2.78787 30.058C2.5228 29.3716 2.86544 28.5972 3.55189 28.3321L33.1182 16.9122L35.12 22.0947C35.3245 22.6242 35.8298 22.9486 36.3653 22.9486C37.2963 22.9486 37.9488 22.0108 37.6099 21.1328L35.6081 15.9503L52.7253 9.33887C53.4116 9.07346 54.186 9.41643 54.4512 10.1029L56.9755 16.6384C57.2405 17.3249 56.8979 18.0992 56.2114 18.3643L26.6452 29.7843L24.8385 25.1067C24.5728 24.4191 23.8001 24.0768 23.1128 24.3427C22.4252 24.6083 22.0831 25.381 22.3486 26.0686C24.841 32.5221 24.6477 32.0458 24.7385 32.1971C25.0024 32.637 25.4926 32.8792 25.9846 32.84C26.278 32.8178 24.2252 33.5793 57.1731 20.8539C59.2325 20.0585 60.2608 17.7361 59.4654 15.6766L56.9409 9.14085C56.1456 7.08167 53.823 6.05357 51.7638 6.84879L28.6136 15.7908C28.4503 15.3658 28.2788 14.9568 28.0995 14.5627C24.8717 4.16421 33.7761 -0.535189 37.8931 5.07052C38.289 5.60951 38.5617 6.24775 38.7035 6.9674C38.8462 7.69055 39.5486 8.16164 40.2709 8.01851C40.9941 7.87605 41.4647 7.17408 41.3222 6.4511C40.347 1.50615 34.5428 -1.85154 29.4909 1.11463C26.9032 2.63383 24.9557 5.59233 24.7505 9.6011C18.1435 3.03269 8.45247 7.02678 9.31991 15.3579C9.58015 17.8587 11.2191 20.1404 13.6093 21.5866L2.59002 25.8427C0.53067 26.6381 -0.497589 28.9605 0.297794 31.02L2.82223 37.5558C3.61978 39.6206 5.94488 40.6412 7.99939 39.848L19.01 35.5952C19.6978 35.3293 20.0399 34.5566 19.7743 33.8689ZM11.9748 15.0814C11.2565 8.18232 20.9979 5.6392 25.6062 15.5254C25.7384 15.9376 25.8863 16.356 26.0513 16.7806L17.1523 20.2178C14.363 19.4706 12.2118 17.3591 11.9748 15.0814Z" fill="#478ECC"/>
<path d="M79.4153 30.5465C80.6261 27.9525 79.7822 25.0484 77.363 23.4838C74.9677 21.9346 72.0016 22.3531 70.1501 24.5007C69.6689 25.059 69.7314 25.9016 70.2896 26.3829C70.8478 26.8642 71.6904 26.8016 72.1718 26.2434C73.372 24.8507 74.9376 25.0936 75.9137 25.7251C76.9082 26.3682 77.7887 27.7213 76.9971 29.417C75.0117 33.6646 70.181 35.3837 67.755 34.4737C65.4064 33.5921 62.8547 29.0541 64.1422 24.5923C64.6255 22.9208 65.9627 22.5785 66.5152 22.5089C67.2464 22.4167 67.7645 21.7491 67.6724 21.0179C67.5803 20.2866 66.9137 19.7674 66.1814 19.8605C63.9397 20.1429 62.219 21.6348 61.5779 23.8515C59.9425 29.5196 63.0513 35.559 66.817 36.9723C70.5679 38.3807 76.8682 35.9957 79.4153 30.5465Z" fill="#FFD84F"/>
<path d="M54.1146 34.1253C54.8515 34.1253 55.4491 33.5278 55.4491 32.7908V31.7899H56.45C57.187 31.7899 57.7845 31.1924 57.7845 30.4554C57.7845 29.7184 57.187 29.1208 56.45 29.1208H55.4491V28.1199C55.4491 27.3829 54.8515 26.7854 54.1146 26.7854C53.3776 26.7854 52.78 27.3829 52.78 28.1199V29.1208H51.7791C51.0421 29.1208 50.4446 29.7184 50.4446 30.4554C50.4446 31.1924 51.0421 31.7899 51.7791 31.7899H52.78V32.7908C52.78 33.5278 53.3776 34.1253 54.1146 34.1253Z" fill="#FFD84F"/>
<path d="M65.4581 10.1037H66.459V11.1046C66.459 11.8416 67.0566 12.4392 67.7936 12.4392C68.5306 12.4392 69.1281 11.8416 69.1281 11.1046V10.1037H70.129C70.866 10.1037 71.4635 9.50621 71.4635 8.76921C71.4635 8.03222 70.866 7.43468 70.129 7.43468H69.1281V6.43378C69.1281 5.69678 68.5306 5.09924 67.7936 5.09924C67.0566 5.09924 66.459 5.69678 66.459 6.43378V7.43468H65.4581C64.7211 7.43468 64.1236 8.03222 64.1236 8.76921C64.1236 9.50621 64.7211 10.1037 65.4581 10.1037Z" fill="#FFD84F"/>
<path d="M78.6366 44.468H77.6357V43.4671C77.6357 42.7301 77.0382 42.1326 76.3012 42.1326C75.5642 42.1326 74.9667 42.7301 74.9667 43.4671V44.468H73.9658C73.2288 44.468 72.6312 45.0655 72.6312 45.8025C72.6312 46.5395 73.2288 47.1371 73.9658 47.1371H74.9667V48.138C74.9667 48.875 75.5642 49.4725 76.3012 49.4725C77.0382 49.4725 77.6357 48.875 77.6357 48.138V47.1371H78.6366C79.3736 47.1371 79.9712 46.5395 79.9712 45.8025C79.9712 45.0655 79.3736 44.468 78.6366 44.468Z" fill="#FFD84F"/>
<path d="M41.4365 39.1299C42.1735 39.1299 42.771 38.5323 42.771 37.7953V36.7944H43.7719C44.5089 36.7944 45.1065 36.1969 45.1065 35.4599C45.1065 34.7229 44.5089 34.1254 43.7719 34.1254H42.771V33.1245C42.771 32.3875 42.1735 31.7899 41.4365 31.7899C40.6995 31.7899 40.102 32.3875 40.102 33.1245V34.1254H39.1011C38.3641 34.1254 37.7665 34.7229 37.7665 35.4599C37.7665 36.1969 38.3641 36.7944 39.1011 36.7944H40.102V37.7953C40.102 38.5323 40.6993 39.1299 41.4365 39.1299Z" fill="#FFD84F"/>
</g>
<defs>
<clipPath id="clip0_167_660">
<rect width="80" height="80" fill="white"/>
</clipPath>
</defs>
</svg>
