<svg width="80" height="80" viewBox="0 0 80 80" fill="none" xmlns="http://www.w3.org/2000/svg">
<g clip-path="url(#clip0_167_640)">
<path d="M77.6921 55.8274V77.3326C77.6921 78.0695 77.0953 78.6663 76.3585 78.6663H42.6503C41.9135 78.6663 41.3167 78.0695 41.3167 77.3326V65.208C41.3167 71.813 35.9637 77.1659 29.3588 77.1659C21.6662 77.1659 15.4071 77.1626 15.4071 77.1626C12.7748 77.1626 10.6426 75.0354 10.6426 72.4131C10.6426 69.7891 12.7681 67.6636 15.3921 67.6636H27.565C30.1873 67.6636 32.3145 65.5364 32.3145 62.9141V55.8274C32.3145 51.8115 34.2866 48.2573 37.3157 46.0767V19.7721C37.3157 9.84632 45.4377 1.57099 55.3651 1.63934C65.2041 1.70969 73.1577 9.70729 73.1577 19.5603V46.4318C75.9744 48.669 77.6921 52.0924 77.6921 55.8274Z" fill="#B9DCFF"/>
<path d="M77.6921 55.8275V77.3327C77.6921 78.0695 77.0953 78.6663 76.3585 78.6663H42.6503C41.9135 78.6663 41.3167 78.0695 41.3167 77.3327V65.2081C41.3167 71.813 35.9637 77.166 29.3588 77.166C21.6662 77.166 15.4071 77.1626 15.4071 77.1626C12.7748 77.1626 10.6426 75.0355 10.6426 72.4132C10.6426 69.7892 12.7681 67.6637 15.3921 67.6637H27.565C30.1873 67.6637 32.3145 65.5365 32.3145 62.9142V55.8275C32.3145 49.2042 37.6828 43.8246 44.3174 43.8246H47.9033C50.5697 50.1239 59.7945 50.1559 62.4768 43.8246H65.6892C72.3131 43.8246 77.6921 49.195 77.6921 55.8275Z" fill="#D1E7FF"/>
<path d="M66.8228 20.1472V26.9688C66.8228 31.5049 64.3022 35.4675 60.5713 37.508C60.6903 37.7201 60.4846 37.0809 62.4768 43.8246C59.7976 50.1484 50.5726 50.1309 47.9032 43.8246C49.9804 37.4242 49.7387 38.139 49.8504 37.8965C45.6644 35.976 42.817 31.6966 42.817 26.8571V22.1543C42.817 21.4208 43.4072 20.8273 44.139 20.8207C50.7989 20.764 57.2505 19.6554 63.2986 17.6216C65.0307 17.0397 66.8228 18.3201 66.8228 20.1472Z" fill="#D1E7FF"/>
<path d="M49.9222 34.1687C51.2727 35.6376 49.3204 37.8063 47.7164 36.6195C44.793 34.4564 42.817 30.9738 42.817 26.8569V22.1541C42.817 21.4206 43.4072 20.8271 44.139 20.8205C44.4282 20.8178 44.7171 20.8133 45.0055 20.8068C45.9356 20.7863 46.7016 21.5302 46.7025 22.4605C46.7031 23.1919 46.7063 24.2776 46.7063 25.9117C46.7063 29.073 47.9184 31.9897 49.9222 34.1687Z" fill="#E8F3FF"/>
<path d="M61.4616 40.3888C57.8529 42.829 52.8813 43.1257 48.8785 40.8172C49.8808 37.7321 49.7426 38.1307 49.8504 37.8965C53.1879 39.4259 57.1985 39.3503 60.5714 37.5081C60.6862 37.7124 60.557 37.3253 61.4616 40.3888Z" fill="#B9DCFF"/>
<path d="M59.9937 2.2781C62.0339 2.83874 61.6013 5.83713 59.4858 5.80829C49.5069 5.67209 41.3169 13.9719 41.3169 23.9398V44.2031C39.8565 44.5782 38.5045 45.2217 37.3159 46.0769V19.7722C37.3158 8.13969 48.3691 -0.916167 59.9937 2.2781Z" fill="#D1E7FF"/>
<path d="M48.1517 47.6588C41.4962 47.6588 36.1488 53.0583 36.1488 59.6617V64.8297C36.1488 68.5124 33.1632 71.4979 29.4805 71.4979H23.6458V67.6637H27.565C30.1882 67.6637 32.3145 65.5373 32.3145 62.9142V55.8275C32.3145 49.2042 37.6825 43.8246 44.3174 43.8246H47.9033C48.2 44.5264 48.5918 45.1649 49.0569 45.7284C49.6937 46.4969 49.1502 47.6588 48.1517 47.6588Z" fill="#E8F3FF"/>
<path d="M15.3921 67.6637C12.7681 67.6637 10.6426 69.7892 10.6426 72.4132C10.6426 75.0355 12.7748 77.1627 15.4071 77.1627C16.0631 77.1627 22.8795 77.1657 23.6457 77.166V67.6637C19.7551 67.6637 19.1988 67.6637 15.3921 67.6637Z" fill="#D1E7FF"/>
<path d="M25.4795 19.2353V24.3666C25.4795 30.7376 19.4476 35.4871 13.1849 33.8289C9.03554 32.7253 5.9748 28.9427 5.9748 24.4399V22.8512C5.9748 21.5722 4.90054 20.8056 3.85112 20.8666C3.01292 20.9152 2.30725 20.2479 2.30725 19.4082C2.30725 13.0467 7.36297 7.74107 13.7243 7.65038C20.1949 7.55802 25.4795 12.7758 25.4795 19.2353Z" fill="#FFD84F"/>
<path d="M18.3111 33.984V37.4898C18.3111 38.2263 17.7139 38.8235 16.9774 38.8235H14.4768C13.7403 38.8235 13.1432 38.2263 13.1432 37.4898C13.1432 33.5157 13.1257 34.0491 13.1848 33.8289C14.8551 34.2744 16.6307 34.2605 18.2644 33.8123L18.3111 33.984Z" fill="#D1E7FF"/>
<path d="M14.7967 12.9222C11.4187 13.6773 8.39118 15.9285 6.80029 19.2694C6.31384 20.2909 5.25992 20.9601 4.13198 20.8704C4.03862 20.8629 3.94477 20.8619 3.85108 20.8674C3.01254 20.9158 2.30737 20.2473 2.30737 19.4087C2.30737 12.9058 7.61366 7.4355 14.2628 7.65805C17.3893 7.76258 17.8498 12.2397 14.7967 12.9222Z" fill="#F5E6A4"/>
<path d="M19.8115 67.6637V77.1643L17.1442 77.1627V67.6637H19.8115Z" fill="#B9DCFF"/>
<path d="M77.6922 55.8275V77.3327C77.6922 78.0692 77.095 78.6663 76.3585 78.6663H75.0082C74.2717 78.6663 73.6745 78.0692 73.6745 77.3327V58.4348C73.6745 53.0523 70.1357 47.7194 63.2885 46.6324C62.2638 46.4697 61.6963 45.3583 62.1831 44.4421C62.2891 44.2424 62.3873 44.0365 62.4768 43.8246H65.6893C72.3201 43.8246 77.6922 49.2029 77.6922 55.8275Z" fill="#B9DCFF"/>
<path d="M79.0263 55.6608V78.6663C79.0263 79.4028 78.4291 80 77.6926 80C76.9561 80 76.359 79.4028 76.359 78.6663V55.6608C76.359 51.2802 73.7333 47.3933 69.6697 45.7582C68.9864 45.4833 68.6553 44.7065 68.9302 44.0231C69.2051 43.3398 69.9814 43.0091 70.6653 43.2836C75.7445 45.3273 79.0263 50.1856 79.0263 55.6608ZM68.3232 59.9952C67.5867 59.9952 66.9895 60.5923 66.9895 61.3288V78.6663C66.9895 79.4028 67.5867 80 68.3232 80C69.0597 80 69.6569 79.4028 69.6569 78.6663V61.3288C69.6569 60.5921 69.0597 59.9952 68.3232 59.9952ZM15.6906 35.4892C9.59801 35.4892 4.64131 30.5325 4.64131 24.4399V22.8517C4.64131 22.2085 3.85812 21.9968 3.50587 22.4137C2.88738 23.6764 0.973755 23.2381 0.973755 21.8278V19.2353C0.973755 12.1113 6.76949 6.31553 13.8935 6.31553C21.0176 6.31553 26.8133 12.1113 26.8133 19.2353V24.3666C26.8132 30.4997 21.8236 35.4892 15.6906 35.4892ZM14.3787 32.7184C14.0201 29.18 12.832 25.7275 10.7368 22.6108C10.3258 21.9995 10.4882 21.1708 11.0995 20.7598C11.711 20.3489 12.5397 20.5115 12.9505 21.1226C14.3495 23.2038 15.4257 25.484 16.1396 27.8901C16.4175 27.3658 16.7397 26.8398 17.113 26.3202C17.5428 25.722 18.376 25.5853 18.9743 26.015C19.5724 26.4446 19.7091 27.2779 19.2795 27.8762C18.1061 29.5101 17.5546 31.2309 17.3065 32.6652C21.1985 31.9089 24.1464 28.4762 24.1464 24.3666V19.2353C24.1464 13.5821 19.5471 8.98284 13.8939 8.98284C8.55859 8.98284 3.6414 13.1532 3.6414 19.5469C5.56186 19.351 7.30895 20.824 7.30895 22.8517V24.4399C7.30845 28.6154 10.3779 32.0868 14.3787 32.7184ZM68.1565 26.9683C68.1565 31.2647 66.0595 35.4872 62.2209 38.0652L63.7543 43.1556C63.9666 43.8608 63.5672 44.6048 62.8619 44.8172C62.1555 45.0295 61.4125 44.6294 61.2001 43.9248L59.8195 39.3408C56.8579 40.5398 53.542 40.6065 50.6053 39.6259L49.3359 43.4577C50.4354 45.608 52.6232 47.0079 55.0352 47.0645C55.7715 47.0819 56.3543 47.6929 56.3371 48.4292C56.3196 49.1755 55.6935 49.753 54.9723 49.7312C51.7002 49.6543 48.724 47.8259 47.1326 44.9914H44.3174C38.4343 44.9914 33.6481 49.7775 33.6481 55.6606V62.7477C33.6481 66.1018 30.9193 68.8305 27.5653 68.8305H24.9794V75.6654H29.3589C35.2172 75.6654 39.983 70.8995 39.983 65.0414V61.3286C39.983 60.5921 40.5802 59.995 41.3167 59.995C42.0532 59.995 42.6503 60.5921 42.6503 61.3286V65.0414C42.6503 72.3703 36.6877 78.3328 29.3589 78.3328H23.6457C22.9092 78.3328 22.3121 77.7356 22.3121 76.9991V68.8305H17.1442V78.6662C17.1442 79.4027 16.547 79.9998 15.8105 79.9998C15.074 79.9998 14.4768 79.4027 14.4768 78.6662V78.2582C11.5543 77.8103 9.30894 75.2849 9.30894 72.2461C9.30894 69.203 11.5553 66.6748 14.4768 66.2322V40.157H13.1432C12.4067 40.157 11.8095 39.5599 11.8095 38.8234C11.8095 38.0869 12.4067 37.4897 13.1432 37.4897H18.3111C19.0476 37.4897 19.6448 38.0869 19.6448 38.8234C19.6448 39.5599 19.0476 40.157 18.3111 40.157H17.1442V66.1633H27.5653C29.4486 66.1633 30.9808 64.6311 30.9808 62.7478V55.6608C30.9808 51.4589 32.936 47.7074 35.982 45.2609V19.2547C35.982 8.63759 44.6198 0 55.2367 0C65.8536 0 74.4913 8.63759 74.4913 19.2547V35.3225C74.4913 36.059 73.8942 36.6562 73.1577 36.6562C72.4212 36.6562 71.824 36.059 71.824 35.3225V19.2547C71.824 10.1084 64.3829 2.66731 55.2367 2.66731C46.0905 2.66731 38.6494 10.1084 38.6494 19.2547V43.592C41.7551 42.1275 44.0923 42.3242 46.9015 42.3242L48.1623 38.5185C44.0792 36.1427 41.4834 31.7227 41.4834 26.857V20.819C41.4834 20.0742 42.0927 19.4772 42.8335 19.4854C49.6612 19.5712 56.4227 18.5226 62.8747 16.3571C65.4367 15.4972 68.1567 17.3737 68.1567 20.1469L68.1565 26.9683ZM14.4768 75.5307V68.9587C13.037 69.3601 11.9762 70.6801 11.9762 72.2461C11.9762 73.8083 13.0363 75.1258 14.4768 75.5307ZM65.4892 20.147C65.4892 19.2288 64.59 18.5948 63.7233 18.8859C57.3377 21.0292 50.7448 22.0978 44.1507 22.155V26.857C44.1507 32.3998 48.411 37.1165 53.8497 37.5949C60.3014 38.1617 65.4892 33.0617 65.4892 26.9685V20.147Z" fill="#478ECC"/>
</g>
<defs>
<clipPath id="clip0_167_640">
<rect width="80" height="80" fill="white"/>
</clipPath>
</defs>
</svg>
